<svg width="137" height="126" viewBox="0 0 137 126" fill="none" xmlns="http://www.w3.org/2000/svg">
<g clip-path="url(#clip0_41_7)">
<path fill-rule="evenodd" clip-rule="evenodd" d="M111.17 110.911C111.126 110.936 111.239 110.988 111.017 110.963C110.888 110.947 110.921 110.947 110.904 111.084C110.869 111.419 110.784 111.394 110.595 111.669C110.31 112.092 110.792 111.935 110.912 112.185C110.784 112.435 110.784 112.306 110.619 112.331C110.49 112.356 110.447 112.52 110.507 112.589C110.619 112.718 110.8 112.485 110.954 112.553C111.107 112.622 111.186 112.707 111.239 112.872C111.548 113.94 111.162 113.364 111.17 113.811C111.178 113.984 111.351 114.086 111.532 114.122C111.507 114.396 111.54 114.509 111.685 114.578C112.055 114.767 111.951 114.388 112.124 114.275C112.888 113.82 112.587 113.707 112.337 113.372C112.252 113.311 111.995 113.416 111.934 113.388C111.899 113.38 111.866 113.336 111.934 113.276C112.039 113.191 112.03 113.292 112.296 113.182C112.348 112.872 112.219 112.699 112.2 112.364C112.365 112.174 112.329 112.32 112.433 112.122C112.2 111.631 112.184 112.364 111.77 111.88C111.521 111.598 111.666 111.699 111.307 111.337C111.203 111.224 111.359 111.191 111.436 111.07C111.496 110.993 111.307 110.837 111.17 110.905V110.911ZM101.931 110.963C101.569 111.298 102.076 111.532 102.068 111.826C102.068 112.067 102.41 112.273 102.446 112.471C102.49 112.696 102.334 112.927 102.498 113.023C102.824 113.116 103.005 112.628 102.84 112.152C102.643 111.705 102.849 110.963 102.394 110.922L101.931 110.966V110.963ZM84.6276 92.5893C84.0166 93.8197 83.4083 93.3033 83.759 93.9515L84.8688 93.9597C85.066 93.795 85.0496 93.7345 85.2386 93.589C85.6168 93.545 85.9785 93.5203 86.2196 93.7263C87.3211 94.6903 87.9485 95.4483 88.4883 96.8875C88.7979 97.6895 88.7897 97.8268 88.7979 98.8073C88.5321 98.832 88.291 98.8842 88.291 99.1698C88.291 99.2467 88.3266 99.8839 88.3349 99.9635C88.3869 100.378 89.3486 101.282 89.461 101.488C90.8885 104.218 90.1405 102.669 90.9488 103.314C91.1543 103.468 91.1735 103.427 91.4639 103.452C91.9462 103.476 91.9462 103.512 92.3325 103.795C93.3299 104.528 92.8915 105.017 93.5436 104.836C93.8286 104.759 93.8286 104.663 93.982 104.388C95.2725 104.295 94.7218 104.723 95.4424 104.913C95.7164 104.981 96.0014 105.138 96.1548 105.163C96.5768 105.248 96.5412 105.069 96.9193 105.36C97.1686 105.542 98.966 106.868 99.2318 106.962C99.525 106.797 99.5415 106.659 99.7141 106.385C101.013 106.247 100.41 106.179 100.944 105.731L102.131 105.102C102.336 105.05 102.854 105.05 102.999 104.74C102.914 104.627 103.095 104.679 102.629 104.55C102.665 104.292 102.665 104.276 102.862 104.146C103.068 104.001 103.016 104.001 103.293 104.053L103.446 104.097C103.446 104.004 103.438 103.924 103.446 103.847H104.657C104.657 103.883 104.649 103.916 104.649 103.951C104.597 104.254 104.391 104.314 104.194 104.468C104.452 104.855 104.238 104.951 104.03 105.201C103.487 105.899 103.668 105.426 103.438 105.717C103.523 105.951 104.178 106.149 104.375 106.234C104.838 106.423 105.054 106.431 105.517 106.561L105.622 106.915L106.37 106.959C106.405 107.398 106.361 107.398 106.49 107.81C106.764 107.717 106.756 107.621 107.101 107.577C107.712 108.56 107.186 108.868 107.994 108.859C108.055 108.387 107.978 108.17 108.123 107.67C109.43 106.929 108.827 107.368 109.455 107.118C109.6 107.058 109.841 106.843 109.97 106.739L110.984 105.937C111.181 105.783 111.293 105.671 111.482 105.533C112.145 105.042 112.444 104.663 113.348 104.638C113.65 104.63 113.951 104.613 114.25 104.613C115.17 104.63 118.058 104.915 118.831 104.449C119.165 104.251 119.406 103.88 119.434 103.174C119.39 102.71 119.297 102.477 119.349 101.96C119.409 101.271 119.453 101.383 119.65 101.029C119.787 100.787 120.294 99.4445 120.302 99.1863C120.612 99.1945 120.741 99.1945 120.87 98.9885C120.998 98.7743 120.938 98.5491 120.87 98.3596L120.475 98.214C120.552 97.7911 120.628 97.0605 120.913 96.7941C121.127 96.5964 121.267 96.7337 121.464 96.4316C121.568 96.2778 121.697 96.0361 121.807 95.8795C122.486 94.932 122.925 96.3025 123.19 93.6824C122.692 93.578 122.27 93.1303 122.683 92.6414C122.804 92.5041 123.01 92.3833 123.275 92.4355C123.629 92.5041 123.569 92.6936 123.782 92.7623C124.023 92.3833 123.996 92.2981 124.341 92.04C124.273 91.8862 124.289 91.9466 124.108 91.8422C123.722 91.6005 123.755 91.1611 123.936 90.9386C124.391 90.3454 124.881 90.9908 125.026 90.9743C125.051 90.7244 125.215 90.285 125.336 90.1037C125.44 89.9499 125.722 89.7494 125.87 89.5517C128.854 85.7093 127.125 88.4915 128.621 86.9947C128.914 86.7008 129.043 86.4784 129.454 86.2449C130.314 85.7533 129.575 85.031 130.503 84.2125C131.613 83.2403 131.295 83.2485 131.972 81.7654C132.495 80.6201 132.205 80.524 132.531 79.2579C132.556 79.1535 133.046 78.3625 133.512 77.4672V77.4589C133.846 76.83 134.164 76.1324 134.304 75.5803C134.485 74.8388 134.131 75.2535 134.63 74.3307C135.077 73.5123 135.008 74.3389 135.592 72.9355C135.688 72.702 135.729 72.6608 135.592 72.4274C135.616 72.0237 135.677 71.6254 135.66 71.2135C135.644 70.7987 135.608 70.4554 135.488 69.9556C135.367 69.464 136.252 68.7499 136.071 68.4835C135.89 68.2088 135.729 68.7251 135.444 68.846C135.15 68.9586 135.09 68.8213 134.981 68.4917C134.904 68.2418 134.835 67.9918 134.767 67.7501C134.707 67.5167 134.707 67.2668 134.742 67.0168C134.811 66.4923 134.811 66.7504 135.016 66.5005C135.137 66.3549 135.112 65.347 135.129 65.0888C135.172 64.545 135.197 64.1248 135.189 63.5728C135.181 63.0207 135.551 62.7461 135.704 62.4879C135.282 62.0649 135.318 62.0485 135.575 61.2053C135.748 60.6533 135.515 60.7137 135.97 60.3786C136.468 59.9996 136.203 60.1973 136.46 59.7332L137.003 59.0438C136.899 58.717 136.849 59.0521 136.822 58.6291C136.805 58.3462 136.882 58.294 136.753 58.0606C136.178 58.2254 136.967 58.3709 136.496 59.1372C136.153 59.7057 135.249 59.7991 134.69 59.5602C134.348 59.4146 134.397 59.475 134.244 59.1372C133.89 58.3627 134.139 58.3627 134.063 57.5964C133.471 57.3987 133.298 57.5113 132.868 56.5802C132.671 56.1655 132.663 55.5393 132.506 55.3141C132.43 55.2015 132.446 55.2702 132.378 55.1411C132.334 55.0642 132.326 55.0202 132.282 54.9269C131.956 54.2375 131.156 54.8335 130.89 54.1002C130.709 53.6003 130.632 52.7819 130.512 52.2408C130.262 52.2326 130.246 52.3617 130.057 52.4907C129.249 52.455 129.007 51.8371 129.155 51.0598C129.216 50.7055 129.216 50.3457 129.328 50.0436C129.706 49.0274 129.81 49.5273 129.465 48.6319C129.38 48.4067 129.353 48.1925 129.259 47.9948C129.175 47.8053 128.692 47.212 128.511 47.1516C128.632 47.5663 128.838 47.7284 128.95 48.1074C128.366 48.6924 128.237 48.0717 127.635 47.5141C127.421 47.3164 127.377 47.3686 127.248 47.039C127.136 46.7561 127.188 46.5913 126.939 46.5556C126.613 47.4427 127.591 47.3988 126.983 48.2529C126.717 48.2282 126.347 47.7531 126.158 47.5388C124.637 45.7729 125.771 44.8171 125.306 44.0426C125.117 43.7322 124.98 43.3093 124.903 42.9495C124.678 41.8729 125.092 42.1997 123.684 41.0791C123.366 40.821 123.16 40.4667 123.253 39.9503C123.64 39.8542 123.555 40.1041 123.933 39.846C123.958 39.5796 123.908 39.217 123.692 39.0715C123.632 39.0275 123.64 39.0358 123.579 39.0028C122.823 38.5304 123.347 38.2201 122.763 38.0031L122.349 38.3464C121.935 38.1322 121.766 37.4675 121.497 37.3384C121.223 37.2011 121.135 37.3384 120.87 37.0638C120.749 36.9429 120.516 36.6408 120.407 36.5996L120.122 36.9951C119.398 36.3332 119.985 35.7043 119.322 35.1358C119.253 35.3775 119.261 35.2566 119.201 35.3335C118.694 35.3253 118.22 35.2978 118.067 34.8254L117.93 34.4464C117.716 34.5672 117.705 34.5837 117.371 34.5755C117.234 34.342 117.302 34.3695 116.968 34.3613C116.434 34.3448 116.107 33.974 115.738 33.378C115.094 32.3096 115.713 32.4992 115.798 31.2413C115.721 31.1644 115.798 31.2165 115.686 31.1479C115.601 31.0957 115.573 31.0957 115.505 31.071C115.658 30.5711 115.488 31.0627 115.401 30.6398L115.642 30.4146C115.22 30.4228 115.014 30.4503 114.713 30.2086C114.729 29.8735 114.97 29.467 115.091 29.1842C115.272 28.7694 115.34 27.6928 115.296 27.1847C115.28 26.9348 115.168 26.8579 115.022 26.7123C114.669 26.3498 114.842 26.1273 114.737 25.5588C114.866 25.3693 114.979 25.3254 114.979 25.026C114.584 25.0095 114.463 25.1111 114.247 24.8283L113.507 23.6994C112.896 22.7684 113.403 22.7959 113.455 22.6585C113.551 22.4251 113.343 21.2716 113.318 21.0299C113.294 20.7882 113.318 20.4366 113.31 20.1785C113.31 19.7995 113.198 19.7747 113.069 19.5166C113.069 18.6899 113.362 19.0085 113.447 18.613C113.283 18.5278 113.266 18.569 113.129 18.4757L113.085 17.9511C113.239 17.8302 113.455 17.7369 113.48 17.5281C113.326 17.3908 113.299 17.5034 113.17 17.399C112.973 17.2452 113.135 17.2013 112.989 17.02C112.877 16.8827 112.378 16.7866 112.266 16.6657C112.102 16.5009 112.241 16.4323 112.145 16.2263C112.033 15.9846 111.244 16.0011 111.055 15.6825C110.995 15.4243 111.055 15.3035 110.918 15.0535C110.764 14.7514 110.822 14.6828 110.773 14.3477C110.463 14.3038 110.515 14.3916 110.37 14.5894C109.63 14.6141 109.795 14.529 109.329 14.8915C108.907 15.2266 108.846 15.2101 108.219 15.2019C107.745 14.3395 107.877 15.46 107.592 13.5924C107.515 13.0486 107.266 13.4276 107.17 11.7495L107.463 11.5243C107.523 10.7828 107.318 11.0684 107.309 10.4559C107.301 10.0083 107.318 9.5606 107.285 9.12116L106.915 8.85476C106.89 8.58835 106.931 8.278 106.89 8.03631C106.846 7.80286 106.701 7.61335 106.633 7.36342C106.528 6.98441 106.589 7.09701 106.238 6.94046C105.98 6.82786 105.904 6.69877 105.764 6.45708C105.816 6.21539 105.928 5.9737 106.074 5.81166C106.254 5.60568 106.487 5.63039 106.512 5.3118C106.17 5.0454 105.772 5.1223 105.411 4.94927C105.117 4.77624 105.213 4.15554 105.221 3.73533C105.238 2.4335 105.548 3.20251 105.238 1.94463C105.161 1.66174 104.783 1.33216 104.627 1.1097C104.334 0.686741 104.567 1.01632 104.188 0.835051C104.145 0.620826 104.112 0.50822 104.249 0.351671L103.819 0.359911L103.69 0.964135C103.356 1.17012 103.235 1.08498 102.89 1.17836C102.761 1.57385 102.873 1.95287 102.821 2.34012C102.753 2.88392 102.246 3.50188 102.081 4.05392C101.977 4.39723 101.917 4.75976 101.832 5.07835L101.273 5.14702C101.169 5.29258 101.092 5.41342 101.032 5.61117C100.92 6.02589 100.911 5.84462 100.698 6.05884C100.602 6.16321 100.268 6.9899 100.243 7.11898C100.553 7.12722 100.794 7.15469 101.035 7.30025C101.095 8.29997 100.322 8.40159 100.15 8.69546C99.9963 9.40954 100.355 9.57433 100.468 10.022C100.218 10.4532 100.013 10.5054 99.7552 11.0986C99.5661 11.5545 99.3606 11.961 99.4127 12.5625C99.5661 12.8646 100.084 12.5982 99.6017 14.1472C99.3442 14.9821 99.5935 15.276 99.5935 16.067C99.7141 16.2043 99.7579 16.2126 99.9278 16.2812C99.9278 16.8937 99.7744 16.9541 99.5497 17.3496C99.3688 17.6682 99.2921 18.0637 99.1277 18.374C98.5687 19.4671 98.8784 20.3295 98.6729 20.8129C98.5961 21.0024 98.2701 21.4748 98.1386 21.6835C98.0098 21.8978 98.0619 22.0186 98.0016 22.2878C97.9413 22.5377 97.8564 22.469 97.7687 22.7794C97.6399 23.2023 97.3905 23.271 97.1412 23.5978C96.9275 23.8807 96.7987 24.0812 96.6507 24.5454C96.2891 25.6906 96.4973 25.5616 95.3794 26.1218C95.1547 26.2262 94.6067 26.5695 94.4259 26.6135C94.1409 26.6821 93.3354 26.6739 93.0751 26.5778C92.8613 26.5091 92.601 26.2235 92.1982 26.0779C91.8366 25.9406 91.5955 25.7675 91.3379 25.4847C91.0529 25.1661 90.8557 25.4325 90.3405 25.0287C89.998 24.7623 90.1076 24.2268 90.083 23.8066C89.8172 23.6088 89.9542 23.7544 89.7651 23.5044C89.5843 23.271 89.5322 23.3397 89.2747 23.2792C89.0253 23.2271 88.639 22.9002 88.3458 22.8068C88.0362 22.7107 87.7348 22.8673 87.0909 22.6695C86.1018 22.3866 85.5702 21.3595 85.0195 20.5767C84.7701 20.3185 83.9098 20.2142 83.559 19.9835C83.3453 19.8461 83.1289 19.7335 82.9234 19.5962C82.7781 19.5028 82.4685 19.2172 82.3205 19.1815C81.9863 19.0964 81.7369 19.2859 81.3588 19.1046C81.0163 18.9398 81.1177 18.786 81.0492 18.4509C80.9889 18.4427 80.8766 18.4262 80.8355 18.4152C80.6628 18.3795 80.7834 18.4152 80.7067 18.3713C80.7231 17.9401 80.8519 17.9676 80.8793 17.7176C80.3888 17.7781 80.8547 18.0966 80.0464 18.0609C79.4189 17.0969 79.1339 17.053 78.2763 16.3911C77.9502 16.1494 76.909 15.6578 76.7364 15.3392C76.3419 14.5894 76.6926 14.6773 77.0022 14.117C77.2351 13.7023 77.5447 13.2738 77.8708 12.9278C78.0955 12.6943 78.2571 12.763 78.438 12.5131C78.5914 12.0571 78.3092 11.8594 78.6627 11.4282C78.8161 11.2387 78.8599 11.2634 78.9202 11.0327C78.9805 10.7663 79.0161 10.7581 79.0654 10.5686C78.8408 10.6043 78.912 10.6125 78.8243 10.8514L78.4626 10.8157C78.29 10.4367 78.2736 10.1181 78.3859 9.6787L78.7038 9.6018C78.4024 9.43701 78.4544 9.61827 78.4544 9.13764C78.6517 9.07722 78.7722 9.10194 78.9695 9.00856C79.2956 8.83553 79.123 8.90419 79.4929 8.86299C79.8628 8.81905 80.0847 8.34666 80.3615 8.86299C80.6711 8.82729 80.6793 8.863 80.8437 8.65701C81.0574 8.38236 80.7999 8.75039 80.8958 8.58835C80.9642 8.47574 80.9314 8.5444 80.9725 8.40708C81.0848 8.03631 81.2054 8.04455 81.2821 7.83856L81.041 7.73419L81.0327 7.24258C81.4547 6.99265 81.1972 7.21786 81.4547 6.78666C81.6958 6.37194 81.841 6.14124 82.2356 5.87483L82.7781 5.55624C82.6658 5.22941 82.6329 5.49582 82.3836 5.15251C82.2795 5.02342 82.1178 4.8504 81.9808 4.77349C81.6712 4.89434 81.6712 5.03166 81.2684 4.98772C81.1478 4.74603 81.0355 4.05666 81.1314 3.82596C80.9423 3.9111 81.0629 3.88638 80.8136 3.88638C80.7697 3.70512 80.7697 3.65293 80.556 3.66117C80.5396 4.04019 80.7368 3.79026 80.4108 4.21321C80.0765 4.28188 79.9888 4.10061 79.7833 4.25716C79.8792 4.46314 79.9039 4.33406 79.9641 4.65265C79.8189 4.84216 79.9395 4.70483 79.6984 4.80645C79.9641 4.84216 80.1532 4.8504 80.3341 5.01244C80.2655 5.36673 80.0765 5.72652 79.7751 5.81441C79.6901 5.83913 79.1833 5.86659 79.0956 5.83913C78.9312 5.7787 78.975 5.53701 78.9832 5.31455C79.1202 5.16899 79.1285 5.24589 79.1887 5.07286C79.06 4.90807 79.197 4.97948 78.9147 4.94378L78.8462 4.64166C78.0297 4.573 78.4325 5.0454 77.7201 4.99596C77.7037 4.573 77.7639 4.61695 78.0544 4.40272C78.69 3.94681 78.3558 4.01547 78.5969 3.55955C78.7503 3.26568 79.0874 3.0954 79.1887 2.79329C78.8627 2.7411 78.8106 2.93061 78.6051 3.14758C77.805 3.94131 77.8489 3.66392 77.479 3.94955C77.3064 4.07864 77.3502 4.27638 77.0406 4.41371C76.7748 4.53455 76.5666 4.44941 76.2761 4.61969C75.6733 4.97399 75.6322 5.41342 75.1061 4.64441C74.9088 4.3423 74.8403 4.4549 74.8924 4.08413C74.6074 4.05941 74.6184 4.12807 74.3855 3.97976C74.2403 3.88638 74.2129 3.7985 73.9718 3.82596C73.7991 4.21321 73.9718 4.24892 73.4128 4.24892C73.1278 4.24068 72.8621 4.20497 72.6401 4.10335C72.3387 3.95779 72.2538 3.94955 72.0373 3.73258C71.9003 3.6035 71.651 3.49913 71.4784 3.39751C71.1523 3.51836 71.3743 3.5623 70.8948 3.53483C70.8427 3.07068 70.9989 3.30138 71.0592 2.96631C70.492 2.95808 70.5166 3.13934 70.1139 3.24096C69.6316 3.36181 69.8042 3.10364 69.1329 3.06793L68.9685 2.75758C68.6945 2.84272 68.5822 2.88667 68.1959 2.84272C67.9109 2.37857 67.4999 1.60132 67.0779 1.44751C66.8368 1.69744 66.9245 1.99956 66.4669 2.1616L65.9162 1.56836C66.0203 1.12068 66.1299 1.47498 66.0532 0.766389C66.0093 0.395615 66.045 0.222587 65.8121 0.0166016C65.5545 0.214348 65.6586 0.488995 65.6148 0.835051C65.2723 0.895473 65.3572 0.870755 65.0805 0.799347L64.8996 1.00533L64.6256 0.909206C64.5297 1.11519 64.6339 0.994346 64.4612 1.06301C64.5571 1.26899 64.5462 1.15639 64.6065 1.3816C64.5215 1.51068 64.5544 1.43378 64.5023 1.51892C64.4585 1.58758 64.4585 1.5354 64.4503 1.63977C64.7681 1.88146 65.4641 1.61505 65.7408 1.98308C65.9299 2.24949 65.5764 2.18082 66.0258 2.24948C65.9902 2.4747 66.0258 2.42251 66.1381 2.60378C66.1463 2.62026 66.1546 2.63948 66.1628 2.64772C66.2587 2.82899 66.2916 2.94984 66.2998 3.19153L66.2751 4.38075C66.2751 4.38075 66.2587 4.40547 66.2587 4.42469C66.1135 4.49335 65.7764 4.52906 65.5627 4.50983C65.1928 4.46589 65.3737 4.35603 65.1161 4.31209C65.1243 4.51807 65.1682 4.42469 65.3052 4.64716L65.201 5.00969C64.8914 4.98497 64.8065 4.86413 64.5489 4.77624C64.2996 5.13878 64.2831 5.21568 63.6968 5.23216C63.4557 5.01793 63.4392 4.79272 63.0173 4.98223C62.8529 5.05089 62.8446 5.11955 62.6556 5.16349C61.9843 5.33652 61.3048 5.28434 60.9458 4.61145C60.7814 4.46589 60.1293 4.43843 59.9238 5.22392C59.7868 5.353 59.3484 5.80892 58.8744 5.75673C58.436 5.79244 58.4524 5.98194 58.4606 6.28131C58.4606 6.65208 58.4524 6.5642 58.0907 6.66032C57.1537 6.89377 57.7729 6.89377 57.4879 7.60786C57.3509 7.94293 57.0057 7.6518 56.8249 7.85779C56.7207 7.97039 56.7646 8.51145 56.8331 8.62405C56.929 8.76138 57.3071 8.87398 57.477 8.9344C57.3729 9.27771 56.6769 10.1401 56.2823 10.1319C56.0686 10.1236 56.0494 9.95884 55.7234 10.011C55.6275 10.3653 55.6795 10.8377 55.5179 11.1481C55.2165 11.6919 55.2932 11.983 55.1398 12.0956C54.9343 12.189 54.8301 12.0791 54.6575 12.2686C54.5205 12.4059 53.9451 13.3452 54.3397 13.7764C54.4685 13.922 54.5808 13.9412 54.8137 14.0264C55.1672 14.1637 55.063 14.1115 55.148 14.4301C55.2521 14.8174 55.7754 14.6718 56.2303 14.7734C56.3262 15.3502 55.0959 15.2897 54.9069 15.3062C55.0521 15.9352 55.4905 16.1769 55.3973 16.5202C54.6575 16.641 54.4082 15.5122 53.7478 15.3392C53.4053 15.2458 53.5232 15.7347 53.4629 15.9681C53.2738 15.839 52.819 15.5726 52.345 15.3639C51.7011 15.3721 51.3914 15.0618 50.6078 15.2266C50.5311 15.5534 50.6599 15.6413 50.6434 15.9928L50.1804 15.9077C49.4762 16.468 50.1365 16.5696 50.1447 17.1738C49.8872 17.1573 49.7146 17.009 49.5337 17.0969C49.3693 17.1656 49.4488 17.1931 49.3967 17.27C49.2597 17.4759 49.4652 17.399 49.1556 17.4238C48.8706 16.9074 49.1474 15.839 49.4049 15.3639C49.5858 15.0288 49.5502 15.0975 49.879 14.9849L49.2597 14.691C47.6952 13.7682 47.7911 13.0459 47.3253 12.8124C46.9389 12.6064 47.0759 12.7959 46.8102 12.3565C46.4238 11.7028 45.9169 12.2192 45.358 12.1423L45.0483 11.4282C44.6702 11.4721 44.3688 11.6012 44.1277 11.7468C44.1524 11.7907 44.3414 11.8072 44.1195 12.4005C43.9551 12.8316 43.2673 13.3837 43.2427 12.4938L42.8207 12.5103C42.6837 12.7438 42.7358 12.8728 42.5193 13.1557C41.8398 13.0019 42.0042 12.6833 41.9604 12.5021C41.8754 12.167 41.385 12.2357 41.3767 12.6751L41.7713 12.752C42.1412 13.4496 41.6507 13.4331 41.4096 13.8808C41.4535 13.8973 41.6754 13.7957 41.5905 14.4411C41.5466 14.7597 41.574 14.5537 41.2206 14.8201C41.0479 14.9492 41.1438 14.9135 40.8945 15.0096C40.8424 14.864 40.6616 14.6224 40.5849 14.5097C40.352 14.485 40.3273 14.518 40.1465 14.4328C40.0698 13.9083 40.4123 13.727 39.8807 13.7188C39.9245 14.0291 39.9766 14.3038 39.9163 14.6141C39.667 14.7185 39.6149 14.6745 39.4779 14.9327C38.8258 14.8201 39.1245 14.864 38.6176 15.1304C38.8916 15.3282 38.5573 15.4573 38.5217 15.8198L38.9436 16.0697C38.8669 16.2757 38.8313 16.1988 38.7984 16.4131C39.4779 16.7673 39.4615 16.7069 39.4341 17.248C39.2094 17.2315 38.8587 17.0942 38.7025 16.9816C37.7408 16.2318 37.9901 17.1024 37.9901 17.1464C37.9819 17.5254 37.8778 17.1628 37.9216 17.638C38.3162 17.844 38.3436 17.7671 38.3436 18.3521L38.1298 18.5416C37.4859 18.4976 37.5791 18.1983 37.2092 17.9483C36.7023 17.9401 37.1407 18.2587 36.316 18.017C35.6282 17.811 35.7817 17.8275 35.4035 18.0005H36.2886C36.3845 18.2504 36.5132 18.2752 36.642 18.4839C36.4612 18.6377 36.1351 18.6734 35.8693 18.7668C35.8447 19.1705 35.8776 20.118 36.2831 20.1373C36.5078 19.8352 36.3269 19.5935 36.7297 19.577C36.979 19.5688 36.9105 19.5688 36.979 19.6896C36.9955 20.1455 36.8941 20.2142 36.6448 20.379C36.7735 20.7745 36.7571 20.714 36.6091 21.0848C36.368 21.137 36.4447 21.093 36.2475 21.0848L36.2228 21.6451C36.6091 21.8593 37.3489 21.6286 37.6312 21.9884C37.5188 22.2383 37.4339 22.2218 37.1489 22.2026C36.9434 22.1861 36.7187 22.1257 36.4968 22.0983C35.905 22.0131 35.8173 22.1752 35.1816 22.0818C35.0857 21.9362 35.0693 21.884 34.9843 21.7632L34.4939 21.7467C34.4774 22.1092 34.4582 22.1504 34.1925 22.3399C33.8993 22.1752 33.7294 21.7961 33.5732 21.5297L33.0581 21.5737C32.9814 22.2273 33.3677 21.9005 33.3759 22.4086L33.006 22.5542C32.869 22.6311 32.8416 22.6915 32.6718 22.7602C32.6964 22.8123 32.9458 23.293 32.9814 23.3287C33.1458 23.4825 33.3431 23.4056 33.5239 23.6225C33.6691 23.7873 34.2473 24.3971 34.2473 24.647C34.1623 24.8447 34.1185 24.9052 33.9541 25.026C33.6609 24.9656 33.6362 24.8118 33.3513 24.7843C33.291 25.0782 33.4472 25.0864 33.5403 25.3693L33.2307 25.6714C33.3595 26.1109 33.5239 26.0147 33.3595 26.6437C32.9896 26.6354 32.8252 26.2207 32.6361 25.9625C32.3786 25.6192 32.3019 25.4544 32.0936 25.1111C31.9046 24.8008 31.7319 24.7239 31.5593 24.2597C31.3949 23.845 31.31 23.639 30.9236 23.433L30.9483 22.7794C31.025 22.7354 31.0524 22.675 31.0168 22.7629C30.9319 22.5899 31.025 22.6421 30.8113 22.5899C30.5784 22.7547 30.6387 22.7272 30.5017 23.0046C30.467 23.0852 30.4122 23.1538 30.3373 23.2106C30.003 23.477 30.14 23.5456 30.1564 24.2185L29.4002 24.235L29.3755 24.7596C28.7837 24.9244 28.4905 25.2677 28.233 25.8005C28.0521 26.1878 28.0877 26.2839 28.1206 26.7563C28.1727 27.4786 28.1371 27.1518 28.3782 27.6077C28.3782 28.1405 28.2576 28.3053 28.3864 28.8985L29.1947 28.6568C29.2632 29.121 29.2303 29.2693 28.981 29.5687C28.707 29.912 28.2412 30.5327 27.8548 30.7496C27.4329 30.9831 27.4329 30.6892 27.2027 31.233L26.841 31.9746C26.7369 32.2327 26.6684 32.5788 26.5753 32.8452C26.4383 33.2325 26.0766 34.1196 25.819 34.386C25.5697 34.6359 24.9066 35.2978 24.6573 35.4626L23.1694 36.2728C22.4214 36.6765 22.4653 36.7287 21.5364 36.8853C21.235 36.9375 20.8487 36.9622 20.5911 37.0748C19.739 37.4099 20.3774 37.6433 19.2321 37.462C18.6046 37.3577 18.8101 37.4373 18.7169 37.1682L19.3088 37.0913C19.1964 37.0226 18.7169 37.1352 18.5087 37.1517C18.2429 37.4703 18.0265 37.7559 17.7853 38.0635C17.5113 38.4178 17.399 38.6925 16.9332 38.9506L16.5715 38.8051C15.9961 39.0632 16.8126 39.0989 15.1878 39.3571C14.8015 39.4175 14.2864 40.0712 14.1055 40.2442C13.9932 40.3651 13.7274 40.6672 13.5986 40.7084C13.2123 40.8539 13.2808 40.6315 12.8588 40.9336C12.5492 41.1588 12.4204 41.0791 12.0423 41.0187C11.5354 40.9418 11.8779 40.9336 11.6477 40.8292C11.519 40.7688 11.3546 40.7935 11.2176 40.8045C10.9162 41.1835 11.097 41.2961 10.4257 41.2604C10.4093 40.615 10.76 40.2772 10.623 39.986C10.2695 40.0794 10.4093 40.7276 9.99552 40.8127C9.76262 40.788 9.79002 40.7441 9.57356 40.6754C9.50506 40.7605 9.34066 40.9858 9.30778 41.0462L9.8229 41.1917C9.80646 41.5103 9.6859 41.4664 9.49684 41.6751C8.83376 42.337 8.74882 42.0624 8.48304 42.2876C8.3296 42.4084 8.33782 42.6062 8.12958 42.7957C7.78708 43.1143 7.55418 43.0539 7.2884 43.5702C6.99522 44.1634 6.60888 44.4326 6.22254 44.9215C6.01704 45.1879 6.0691 45.1274 5.74852 45.2922C4.97584 45.696 3.77024 46.2041 3.42774 47.0143C3.28252 47.3576 3.23868 47.2724 3.07428 47.4976C3.09894 47.9371 3.014 48.6182 2.877 49.0055C2.73178 49.1181 2.74822 49.0494 2.61944 49.1785C2.5071 49.2911 2.5756 49.2829 2.39476 49.4202C2.16186 49.3515 2.18104 49.3433 2.01664 49.1867L2.09336 48.5935C1.7399 48.2831 1.75086 48.4891 1.7399 47.9206C1.7399 47.6185 1.78374 47.1543 1.67962 46.8879C0.967218 47.4043 1.24944 48.0332 0.948038 48.7583C0.871318 48.9313 0.674038 49.6097 0.654858 49.8102C0.611018 50.1645 0.887758 50.4721 1.0686 50.7659C1.24122 51.0406 1.43028 51.3427 1.2741 51.8179C1.10148 52.3342 1.42754 52.4386 1.46316 52.834C1.507 53.3257 0.879538 54.1606 0.723358 54.7731C0.646638 55.1081 0.671298 55.6519 0.654858 56.0227C0.638418 56.9181 0.972698 57.2971 1.49604 57.8931C2.10706 58.5824 1.50426 58.7197 2.59752 59.5135C2.77836 59.6508 2.99208 60.0463 3.21676 60.2797C3.42226 60.4857 4.44702 61.6145 4.4799 61.7711C4.43606 62.1748 4.4799 62.6142 4.48812 63.0454C4.49634 63.6057 4.88268 63.3283 4.40318 64.0177C3.9045 64.0424 3.7675 63.8529 3.63872 63.4135C3.57022 63.1883 3.3291 62.5511 3.33732 62.4659L3.27704 63.1278C3.10442 63.213 3.18114 63.1965 2.96742 63.2404C2.87152 62.9576 2.74274 62.0952 2.56464 61.9661C2.32352 61.7848 2.33174 61.8535 2.1098 61.5706C2.0413 61.4854 1.99746 61.4058 1.92896 61.3207C1.6714 61.0268 1.66318 61.2163 1.65496 61.2273C1.45768 61.7436 1.70702 61.8892 1.9728 62.2599C2.07692 62.4055 2.12624 62.5099 2.23858 62.7076C2.30708 62.8285 2.4797 63.1388 2.53998 63.1992C2.80576 63.4931 3.15922 63.3036 3.43322 63.8117C3.61406 64.155 3.67434 64.5697 3.3565 64.7949C3.20306 64.9075 3.34828 64.8114 3.17566 64.8993L2.9181 64.7537C2.8496 64.7098 2.7126 64.6247 2.66876 64.589C2.37558 64.3637 2.58382 64.1935 2.39476 64.004C2.28242 63.8831 2.08514 63.8392 1.92074 63.6332C1.79196 63.4684 1.73168 63.2377 1.62756 63.0811C1.45494 62.8065 1.30972 63.0207 1.06038 62.8669C0.665817 62.6252 0.304138 61.6365 -0.0137024 61.4278C-0.0137024 62.5813 0.630198 62.8065 0.827478 63.029C0.956258 63.1828 0.939818 63.2871 1.00832 63.4766C1.16176 63.9161 2.73726 65.3278 3.14826 65.6738C3.59488 66.0528 5.21148 67.9232 5.19504 68.6016C5.15942 69.593 5.1512 69.2635 5.4526 70.1533C5.5896 70.557 5.63344 70.1286 6.42256 71.0322C6.62806 71.2574 6.84452 71.4469 7.05002 71.6776C7.54048 72.2461 7.23908 72.6773 8.09122 73.1497C8.20356 73.4079 8.34056 73.4244 8.50496 73.6056C8.70224 73.8199 8.6173 73.9929 8.70224 74.295C8.78718 74.5971 8.93514 74.5806 8.94336 74.9487C8.99542 76.3439 9.57904 78.7141 10.4394 79.7632C10.5682 79.9088 11.2203 80.6146 11.2724 80.7355C11.4368 81.1584 11.1874 80.9415 11.5655 81.3562L12.3985 82.3284C12.5519 82.5262 12.7246 82.6031 12.6561 82.9738C12.33 83.4462 12.4232 83.9049 12.8972 84.0944C12.9739 84.4734 12.9328 84.3608 12.7931 84.619C13.352 85.7313 12.8698 86.0664 12.8287 86.3163C12.6643 87.2034 13.5603 88.1262 13.215 88.9941C13.0013 89.5462 13.0862 90.1833 12.2259 90.2245C11.719 90.2493 11.719 89.9993 11.3326 89.9911C11.2559 90.6805 11.308 91.0073 11.4696 91.6115C11.9601 93.4462 11.9683 92.7568 12.5876 92.7403C13.6452 92.7156 13.9877 93.4214 14.8727 94.119C15.407 94.5338 15.818 94.0421 16.3003 94.5585C16.377 94.6354 16.3852 94.6628 16.5058 94.7123C16.7195 94.8167 16.9798 94.781 17.2291 94.7562L19.2841 94.5502C19.6184 94.5255 19.739 94.6354 19.9965 94.6189C20.2212 94.6107 20.3829 94.4541 20.5637 94.4376C20.7884 94.4129 20.8898 94.5063 21.2679 94.4376C21.3282 94.3855 21.4049 94.2729 21.4734 94.2399C21.6624 94.1355 21.6268 94.2317 21.783 94.1355C21.9282 93.9625 21.7666 93.9625 22.057 93.8087C22.2817 93.6961 22.3748 93.7647 22.6077 93.6961C22.6077 93.4214 22.3748 93.2045 22.7721 92.8859C22.8927 92.7925 23.0215 92.7815 23.1503 92.6607C23.2708 92.5481 23.2462 92.4794 23.3832 92.2981C23.9503 91.5319 24.2161 91.79 25.2573 91.6939C25.5149 91.3231 25.1614 91.3671 25.8766 91.3231C25.8327 91.0403 25.3943 91.3396 25.9122 90.1696C26.3752 89.1177 28.4056 89.3677 28.559 89.299C29.0495 89.0738 27.8357 89.1342 30.288 88.6865C31.0113 88.5574 31.7566 88.541 32.4964 88.5327C32.6498 88.6371 32.7101 88.7826 32.9348 88.7909C33.1841 88.8074 33.3047 88.497 33.5705 88.7305C33.691 88.8431 33.6828 88.8678 33.8801 88.876C34.1815 88.8843 34.1212 88.8156 34.2747 88.67C34.5158 88.6618 34.7569 88.6865 34.9268 88.5767C35.0556 88.4998 34.8747 88.5162 35.2008 88.4476L36.7571 88.2746L37.0064 88.6014C37.3599 88.5767 37.3681 88.4119 37.5572 88.1976C37.823 88.1894 38.1929 88.4036 38.6148 87.7335C38.7354 87.5522 38.7874 87.3023 38.9162 87.1732C39.1738 86.9068 39.1053 87.121 39.2587 86.6898C39.3793 86.3191 39.4834 85.6901 39.6286 85.3633C39.6889 85.2424 40.1958 84.4679 40.3602 84.3993C40.8835 84.185 41.1329 84.4075 41.6754 84.0203C42.1576 83.666 42.6892 83.1936 43.1194 82.9272C43.7468 82.5317 43.3441 83.1414 44.6675 81.9439C44.8045 81.8148 44.9333 81.6253 45.1305 81.5567C46.2128 81.1612 46.2485 81.4276 46.454 81.4963C46.6595 81.5649 47.0294 81.5127 47.2623 81.5045C48.8021 81.4441 48.9912 81.5484 50.142 81.0211C51.6901 80.307 51.1722 80.9689 52.6354 80.1258C52.9971 79.9198 53.3396 79.6946 53.7013 79.5051C54.4822 79.1013 54.663 78.7992 55.5316 78.747C56.3563 78.5822 57.5099 78.412 58.3757 78.4284C58.8908 78.4367 59.4169 78.4367 59.9402 78.4449C60.7732 78.4532 60.628 78.5136 61.2308 78.1703C61.7212 77.8956 61.8336 77.7748 62.3816 78.0494L64.4448 79.1343C64.9435 79.4089 64.9188 79.2881 65.064 79.6671L65.1928 79.917L65.9737 79.8566C66.1189 79.6149 65.9217 79.7797 66.1546 79.6067C67.3163 79.6836 67.1081 79.6918 67.8835 80.2796C68.6562 80.8728 69.4124 80.2274 69.7823 80.2439C69.8782 80.4855 69.8344 80.502 69.8782 80.7602L70.6947 80.9332L70.6701 81.7764C70.9961 81.7407 71.1167 81.5347 71.3743 81.6116C71.5112 81.6555 71.7962 81.9137 71.8894 82.0071C71.8647 82.2131 71.7441 82.4108 71.6757 82.5921L71.1852 82.6086C71.1167 82.9024 71.1496 83.4023 71.2975 83.633C71.3934 83.7786 71.5113 83.7868 71.6236 83.9077C71.7688 84.045 71.7085 84.045 71.7962 84.2619C72.1825 84.3141 72.621 84.2619 72.8539 84.2784L73.0867 84.3388C73.1306 84.2702 73.5087 84.9925 73.5416 85.0722C73.9444 85.8219 72.9826 85.4869 74.1608 86.5031C74.2732 86.5965 74.3335 86.6322 74.4787 86.7173C74.9335 86.9919 74.9089 86.9755 74.813 87.9669C75.1746 88.2169 75.1829 88.1125 75.276 88.6645C75.3363 89.0079 75.3966 89.1644 74.8979 89.3979C74.6732 89.3017 74.802 89.3017 74.5883 89.2001L74.4239 89.3731C74.6211 89.7686 74.9746 89.7769 75.2486 90.0625C75.4733 90.3124 75.6706 90.5871 75.9281 90.8123C76.709 90.5102 76.8132 91.2847 77.5447 91.3204C77.5091 91.0265 77.3036 90.9249 77.1913 90.6585C77.1228 90.4937 77.1666 90.4607 77.0872 90.2795C77.0269 90.1147 76.9912 90.1504 76.9227 89.9362C77.1474 89.4281 77.4899 89.5489 77.6187 89.2825C77.816 88.8952 77.6872 88.7744 78.0215 88.3597C78.3064 88.0054 78.1667 87.8434 78.923 87.2584C80.1176 86.3465 80.6163 86.8629 81.0903 86.1131C82.0959 84.5448 81.6821 84.5119 81.8383 84.2537C81.915 84.1246 82.759 83.7703 82.811 83.5918C82.811 83.2897 82.811 82.7816 83.0439 82.6086C83.2494 82.6855 83.096 82.5399 83.2083 82.7541L83.3371 83.5039C83.3974 84.1164 83.6029 83.806 83.6988 84.1933C83.5262 84.2977 83.1645 84.5201 83.0877 84.7371C83.096 85.2809 83.3535 85.3303 83.5179 85.6407C83.4138 85.9675 82.5726 86.9068 82.2712 87.2254C82.0657 87.4506 82.126 87.3792 82.0575 87.717C81.9972 87.9587 81.9041 88.0603 81.8602 88.2608C81.8082 88.4503 81.8246 88.6755 81.7561 88.8815C81.7041 89.0545 81.6027 89.1754 81.5314 89.3374C81.5396 89.3457 81.5671 89.3539 81.5753 89.3539L81.704 89.4143C81.9972 89.5352 81.652 89.3622 81.8082 89.4583C81.8438 89.7769 81.8164 90.1037 81.8164 90.4223C81.8082 90.9139 81.7999 90.8535 81.6273 91.1638C81.0519 91.1721 80.4656 90.8288 80.0628 91.2682C79.9943 91.9219 80.493 92.2322 81.0245 91.9658C82.2959 91.3286 81.6958 92.0427 82.5644 91.8367C82.6768 91.5621 82.6493 91.2325 82.7781 90.8892C82.8822 90.5953 83.0713 90.3564 83.0877 90.0625C83.2083 88.6426 83.3289 89.3484 83.5344 88.6838C83.6193 88.4009 83.5864 88.4174 83.7673 88.313C83.9728 88.4421 84.0769 88.6316 84.1618 88.9062C84.5235 90.1119 84.8578 90.0186 85.1236 90.5431C84.9592 90.8617 84.729 90.6475 84.7016 91.1199C84.6769 91.5676 85.1482 92.0757 84.6057 92.592L84.6276 92.5893ZM58.3647 1.72216C58.1401 1.47223 58.0387 1.21406 57.54 1.25801L57.4879 1.53266C56.8002 1.71392 56.8769 1.72216 56.8687 2.45547C56.8523 3.44695 56.1892 2.69716 56.2577 3.30962C56.7481 3.43047 56.7646 3.16406 57.1783 3.1723C57.5208 3.1723 57.8907 3.31786 58.2003 3.37005C58.3538 3.25744 58.2853 3.27667 58.4497 3.15582C58.8196 3.23272 59.0415 3.41399 59.4388 3.5266C59.8252 3.63096 60.3403 3.208 60.7102 2.90589C60.8828 2.76033 60.9513 2.7411 61.1047 2.57906L61.6801 1.79632C61.5431 1.50244 61.1897 1.13442 60.7951 1.04653C60.691 1.12343 60.6746 1.15913 60.5814 1.2278C60.4444 1.3047 60.4526 1.2635 60.3321 1.33216C60.0389 1.47773 60.2553 1.54639 59.7731 1.53815C58.8607 1.52991 59.9183 1.80456 58.3647 1.72765V1.72216ZM111.943 116.5C111.926 116.577 111.943 116.5 111.934 116.56C111.926 116.613 111.891 116.637 111.951 116.896C112.011 117.145 112.261 116.758 112.036 117.464C111.811 118.17 112.132 117.989 111.959 118.884C111.778 119.779 112.011 119.271 112.003 119.606C111.995 119.941 112.055 119.873 112.028 120.235C112.011 120.59 111.625 119.892 111.376 120.191C111.126 120.493 111.17 120.735 111.134 120.966C111.091 121.191 111.134 121.131 111.118 121.32C111.102 121.501 111.162 121.647 111.093 121.776C111.017 121.905 110.792 121.793 110.767 121.974C110.751 122.155 110.992 122.43 110.88 122.647C110.767 122.864 110.888 123.13 110.57 123.179C110.252 123.232 110.397 123.042 110.079 122.99C109.762 122.946 109.83 123.215 109.658 123.24C109.485 123.265 109.493 122.99 109.4 122.938C109.315 122.877 109.167 122.724 109.142 122.902C109.126 123.083 109.34 123.583 109.255 123.814C109.17 124.039 109.09 123.951 109.022 124.108C108.962 124.262 109.288 124.443 109.005 124.572C108.731 124.701 108.852 124.407 108.644 124.253C108.438 124.108 108.66 124.27 108.567 124.209C108.471 124.141 108.403 123.786 108.266 124.045C108.129 124.303 108.394 124.424 108.499 124.682C108.594 124.948 108.414 124.726 108.285 124.871C108.164 125.017 108.389 125.036 108.353 125.113C108.318 125.182 108.156 125.19 108.112 125.234C108.068 125.27 108.156 125.355 108.129 125.423C108.104 125.492 108.068 125.734 107.975 125.819C107.879 125.904 107.915 126.113 107.613 125.888C107.312 125.662 107.46 125.404 107.192 125.396C106.926 125.379 107.405 125.525 106.95 125.594C106.496 125.654 106.298 125.473 105.849 125.61C105.411 125.747 105.832 125.352 105.841 125.292C105.849 125.223 105.832 125.283 105.885 125.267C105.945 125.259 106.098 125.303 106.194 125.198C106.29 125.105 106.512 125 106.323 124.836C106.142 124.671 105.868 124.852 105.66 124.792C105.454 124.731 105.926 124.534 105.608 124.465C105.29 124.388 104.98 124.198 104.827 123.905C104.682 123.622 104.887 123.759 104.517 123.55C104.147 123.336 104.115 122.74 103.838 122.301C103.572 121.853 103.605 121.724 103.564 121.474C103.528 121.216 103.435 121.224 103.676 121.293C103.909 121.37 103.909 121.518 104.03 121.587C104.142 121.655 103.909 121.647 104.175 121.63C104.441 121.614 104.131 121.751 104.312 121.57C104.493 121.389 104.139 121.062 104.038 120.949C103.936 120.837 104.002 120.864 103.857 120.595C103.712 120.32 103.728 120.51 103.479 119.881C103.238 119.252 103.454 119.845 102.988 119.219C102.525 118.598 102.764 118.804 102.397 118.134C102.018 117.453 102.251 117.662 102.079 117.36C101.906 117.049 101.983 117.239 101.925 116.964C101.857 116.698 101.72 116.335 101.712 116.052C101.703 115.77 101.84 116.028 101.917 115.717C101.994 115.415 102.098 115.226 102.416 115.303C102.628 115.354 102.782 115.391 102.879 115.415C103.032 115.451 103.282 115.44 103.413 115.484C103.55 115.528 103.558 115.577 103.835 115.682C104.101 115.775 104.394 115.863 104.695 116.069C104.997 116.283 105.013 116.275 105.495 116.484C105.978 116.681 106.348 116.907 107.024 116.734C107.712 116.56 107.997 116.346 108.364 116.19C108.742 116.025 108.597 116.165 108.838 116.173C109.071 116.181 108.863 115.948 109.252 115.984C109.638 116.028 109.69 116.044 110.214 115.58C110.737 115.108 110.395 116.286 110.978 115.701C111.408 115.27 112.189 115.58 111.951 116.495L111.943 116.5Z" fill="white"/>
</g>
<defs>
<clipPath id="clip0_41_7">
<rect width="137" height="126" fill="white"/>
</clipPath>
</defs>
</svg>
