<svg width="214" height="63" viewBox="0 0 214 63" fill="none" xmlns="http://www.w3.org/2000/svg">
<path fill-rule="evenodd" clip-rule="evenodd" d="M145.114 -5.01426e-05L144.962 0.153222C144.841 0.153222 144.779 0.0926018 144.779 -5.01426e-05H144.627C144.322 0.153226 143.713 0.3351 142.8 0.487232V0.670245C142.008 0.670245 141.399 0.76176 141.003 1.0054C140.608 1.0054 140.547 1.03628 140.882 1.12779L140.699 1.15753C140.242 1.15753 138.719 2.01084 136.161 3.77581C133.543 5.54306 132.233 6.63886 132.202 7.00375L131.746 7.21765L131.381 7.52192V7.67405L128.275 12.7287L127.605 13.5809C126.905 14.83 126.508 15.7737 126.448 16.3524C126.265 17.2973 126.448 18.241 126.935 19.1846C127.392 19.9762 127.605 20.4635 127.605 20.5858C127.697 20.5858 127.909 20.4635 128.275 20.2507L128.609 21.0731C128.914 21.0731 129.28 21.1635 129.767 21.3168C130.223 21.4986 130.589 21.5593 130.894 21.5902C130.894 21.6508 130.985 21.7125 131.229 21.7125L131.716 21.5902C133.056 20.738 133.939 19.7932 134.334 18.758L134.609 17.144C134.699 16.8695 134.822 16.6579 134.944 16.5046C134.944 16.4131 134.853 16.3524 134.67 16.3524L135.279 15.1949C135.248 15.1949 135.248 15.013 135.279 14.6778C135.279 14.5555 135.339 14.4045 135.4 14.2821L135.613 13.5809C135.736 13.5809 135.826 13.6427 135.948 13.7342V13.9161H136.1L135.948 13.0639C136.131 13.0639 136.436 12.7287 136.862 12.0893L137.562 10.7796C137.684 10.7796 137.806 10.902 137.897 11.1148H138.08C138.08 10.6275 138.385 10.1402 138.993 9.65406L140.516 8.6795L141.338 8.83162C141.338 8.74012 141.43 8.43586 141.673 8.0092H142.008L141.825 8.6795H142.008V8.49648L143.073 7.8868C143.683 7.52191 144.2 7.46129 144.627 7.67405H144.779L144.627 7.15702H145.572V7.33891C145.632 7.33891 145.693 7.30916 145.784 7.27828L149.529 7.15702C149.529 7.06552 149.408 7.00375 149.194 7.00375V6.85162H150.2C150.2 7.06552 150.443 7.27828 150.991 7.52192C150.961 7.40067 151.083 7.46129 151.295 7.67405C151.295 7.79644 151.357 7.82618 151.478 7.85706C151.478 7.70493 151.57 7.58254 151.814 7.52192V7.15702H151.966C151.966 7.43155 152.057 7.70494 152.3 8.0092V8.19222H152.484V8.0092H152.636V7.85706H152.3V7.67405L152.636 7.85706L153.58 8.34434C153.763 8.34434 153.854 8.49648 153.915 8.83162L154.402 8.49648C154.402 8.70924 154.585 8.98376 154.95 9.31891L155.711 10.2923H156.198C156.319 10.2923 156.443 10.4147 156.594 10.719L156.837 11.3584L157.416 11.7851C158.147 12.6681 158.726 13.1554 159.151 13.2469L158.817 13.5809H158.664V13.7342C158.787 13.7342 159.122 13.9469 159.639 14.4045C160.4 16.1397 160.827 17.2046 160.919 17.6313H161.101V17.8143H161.253C161.253 17.6919 161.222 17.5706 161.101 17.4791V17.2973H161.253C161.253 17.4185 161.313 17.51 161.436 17.6313C161.558 17.6313 161.588 17.6919 161.588 17.8143C161.497 17.8143 161.436 17.8749 161.436 17.9664H161.101C161.101 18.0888 161.375 18.3016 161.923 18.6367C161.923 19.2452 161.984 19.6422 162.105 19.7932C162.105 19.9156 162.076 19.9464 162.014 19.9762L161.771 19.9156H161.588C161.588 20.0677 161.831 20.1592 162.258 20.2507L162.502 22.0774C162.623 22.9296 162.592 23.4775 162.441 23.6914V23.8744L163.081 24.0265V24.2096C162.989 24.1787 162.927 24.5138 162.927 25.1532C162.806 25.1532 162.745 25.2139 162.775 25.3054H162.927V25.4884H162.592L162.775 25C162.441 24.9702 162.35 25.2139 162.441 25.6405H162.258C162.258 25.4884 162.105 25.3054 161.771 25.1532V25H161.588C161.588 25.0915 161.648 25.2139 161.771 25.3054V25.4884H161.588C161.588 25.2745 160.857 24.7872 159.395 23.9648L155.65 22.0774L153.184 21.4689C151.966 21.1944 151.173 21.1944 150.809 21.438L150.2 21.255H150.017V21.0731H149.681V21.5902H149.346C149.346 21.4689 149.255 21.4083 149.104 21.438H148.677L147.855 21.7423V21.5902H147.732V21.9253H147.58V21.7423C147.428 21.7423 147.306 21.8029 147.246 21.9253H146.394C146.394 21.8029 146.301 21.7423 146.058 21.7423V21.9253C145.967 21.9253 145.906 21.9859 145.906 22.0774C145.48 22.0774 145.023 22.2902 144.627 22.7168L143.958 22.5338C143.958 22.7168 143.713 22.8999 143.256 23.0211L142.344 23.3563H142.008V23.2041L140.516 24.5138C140.395 24.5138 140.333 24.5745 140.333 24.6957C140.151 24.6957 139.847 24.9096 139.45 25.3054L138.719 26.1576C138.141 26.1576 137.562 26.7363 136.954 27.9239V28.1066C136.831 28.1066 136.771 28.1674 136.771 28.2589H136.619V28.4417L136.284 28.7769C136.375 28.7769 136.1 29.1727 135.431 30.0248L133.847 31.8826H134L132.508 34.0448L131.868 35.354L130.376 36.7855H130.223C130.223 36.9071 130.042 36.9071 129.706 36.7855H129.584C129.584 36.8459 129.432 36.9374 129.097 36.9983L126.812 37.303L124.498 38.2163H124.346C124.346 38.277 123.981 38.3686 123.189 38.521L119.292 38.4902C117.342 38.3991 116.155 38.2163 115.82 37.9424C115.364 37.5769 115.059 36.9071 114.907 35.9326L114.998 34.1663C114.937 32.6132 114.968 31.5172 115.12 30.9082L115.668 28.7769C115.638 27.4066 115.82 25.6703 116.186 23.569L117.1 18.4846L117.525 13.5809L118.286 10.8402C118.592 9.6838 118.713 8.74012 118.683 8.0092C118.621 7.2474 118.379 6.60798 117.921 6.03033C117.434 5.36004 116.825 4.994 116.155 4.9025C114.816 4.75036 113.902 5.48243 113.354 7.09527C113.05 8.0092 112.897 9.37953 112.867 11.2063L112.837 15.53C112.684 19.0622 112.257 22.4423 111.527 25.7012L111.192 27.9846C111.04 29.0204 110.857 29.7205 110.614 30.086C110.614 31.8214 110.553 33.1007 110.4 33.9836L109.761 38.0644C109.791 39.7694 110.248 41.2613 111.04 42.5097C112.013 44.0325 113.292 44.52 114.876 43.9409V44.1241L115.028 44.0933C116.095 43.7581 117.038 43.5146 117.8 43.3931L119.596 43.1192C119.687 43.1192 119.749 43.3015 119.749 43.6366H119.931L120.084 43.1192V42.9972H122.946C124.224 43.0888 125.017 43.3931 125.321 43.9409L125.535 43.8806L125.656 43.789L126.997 44.4587C126.966 44.3677 127.057 44.3677 127.27 44.4587C127.27 44.154 127.544 44.3677 128.092 45.129C128.092 45.2202 128.153 45.2814 128.275 45.2814C128.275 45.129 128.428 45.007 128.762 44.9458L128.914 45.4337C129.615 45.4337 130.284 45.7375 130.925 46.3167C131.625 46.956 132.173 47.3211 132.508 47.4127L132.202 47.8997L135.765 51.1579H136.1L135.979 50.7316L135.765 50.3362H135.948C135.948 50.6101 136.253 50.7928 136.862 50.9448L138.08 51.1579V51.3103C137.959 51.3103 137.897 51.2495 137.897 51.1579C137.775 51.1579 137.714 51.2495 137.745 51.4626H138.08C138.05 51.6454 138.111 51.5841 138.233 51.3103L139.207 51.4626L139.572 52.1328H139.907L139.724 51.6454H139.907C139.876 52.1328 140.913 52.2847 142.952 52.1328L145.235 51.9805C145.235 51.8281 145.632 51.7669 146.394 51.7973C147.246 51.8281 147.732 51.7365 147.855 51.4626C148.89 51.4626 149.529 51.6454 149.864 51.9805H150.017C150.017 51.615 150.2 51.4014 150.566 51.341L151.478 51.3103C151.57 51.3103 151.631 51.1887 151.631 50.9751V50.8537C151.753 50.8537 151.843 51.006 151.966 51.3103L153.245 50.7013C153.245 51.006 153.792 50.7316 154.919 49.8487C154.919 50.0922 155.406 50.0011 156.381 49.6963L158.178 48.8742C158.178 48.9962 158.299 49.1785 158.482 49.3617C159.608 48.5999 160.34 48.1736 160.644 48.052C160.644 47.8997 160.857 47.8997 161.253 48.052V47.5651C161.375 47.5651 161.527 47.6866 161.771 47.8997C161.771 47.5651 162.045 47.3519 162.623 47.1995L164.055 47.2299C164.145 46.8948 164.511 46.5905 165.09 46.4077C165.761 46.1643 166.155 45.9506 166.339 45.7375H166.673V45.8899H166.491V46.8948H166.825L166.673 46.5905H167.161C167.161 47.443 167.221 47.9913 167.313 48.2348L167.648 49.6963H167.496V49.8487C167.678 49.8791 167.983 50.1535 168.41 50.7316C169.292 51.9193 170.419 52.5587 171.759 52.6199L176.022 52.4371L177.605 52.4675L177.849 52.1628L178.611 52.1328V51.7973C179.28 51.7062 179.706 51.5841 179.889 51.4626L181.229 51.6454V51.3103C181.229 51.1887 181.32 51.1275 181.564 51.0972C181.808 51.0972 181.96 51.0359 182.02 50.9751L183.36 51.1579C183.787 51.1579 184.122 51.0972 184.305 50.9751H184.457L184.305 51.3103H184.457V51.4626C184.548 51.4626 184.67 51.3103 184.792 50.9751L185.523 51.0972C186.254 51.006 187.076 50.7013 187.989 50.1838C189.176 49.5444 189.969 49.1785 190.364 49.0266C190.364 48.8742 190.942 48.7526 192.1 48.57L194.293 48.2348V48.3569H194.475C194.475 48.4783 194.293 48.5092 193.989 48.5391C193.989 48.7219 194.201 48.7526 194.597 48.6914C194.597 48.7826 194.658 48.8742 194.749 48.9046C196.303 49.4225 197.246 49.7879 197.55 50.0314C198.19 50.0011 199.225 50.1838 200.656 50.5185V50.0314H200.809C200.809 50.1838 201.083 50.3362 201.57 50.4881L202.605 50.7013C202.605 50.7316 202.758 50.7316 203.092 50.7013C204.798 50.4881 206.809 50.9144 209.153 51.9805L209.457 52.0109L210.553 51.9805L211.285 51.8281C212.045 51.6454 212.624 51.3103 213.02 50.8537C213.842 49.9398 214.148 48.8433 213.934 47.5651C213.782 46.3167 213.172 45.4029 212.137 44.7939C211.803 44.6111 211.527 44.4891 211.285 44.3984L210.614 44.3064C210.614 44.2152 210.462 44.0933 210.127 43.9409V43.789L210.005 43.9409H209.823V44.1241H209.487C209.487 44.0325 209.336 44.0325 209 44.1241C209 44.0021 208.94 43.9409 208.848 43.9409V44.1241H208.513V44.3064H207.386L202.605 44.6111C202.605 44.5503 202.453 44.4891 202.148 44.4891L199.195 44.3372C197.947 44.1849 196.973 44.1849 196.242 44.3064V44.1241H195.937V44.3064H196.089C196.089 44.3984 196.028 44.4587 195.937 44.4587V44.3064L192.1 44.154L188.081 44.3064L187.41 44.4587L181.685 44.7939C181.685 44.8243 181.533 44.9155 181.229 44.9458V44.7939C181.106 44.7939 181.046 44.8546 181.077 44.9458H180.894C180.894 45.0374 180.772 45.0678 180.529 45.0678L179.889 45.129L178.275 44.9458V45.129L177.605 44.9458C177.545 44.9458 177.453 44.9155 177.332 44.8243L177.118 44.6111V44.4587C176.388 44.4587 176.357 43.6974 177.087 42.2059C177.757 40.7131 178.397 39.891 178.946 39.7082L178.823 39.374L178.611 39.0688C178.794 39.0385 179.067 38.8253 179.432 38.3991C179.798 37.9424 179.95 37.6377 179.889 37.4554V37.2726L180.559 37.1202C180.559 37.0291 180.468 36.9071 180.254 36.7855L181.077 36.6029V36.4505H180.742V36.2677H180.559V36.1154C180.742 36.1154 181.139 35.7195 181.777 34.8974L183.026 33.3441L182.539 33.1619H182.691C182.691 33.0399 182.751 32.9184 182.874 32.8875L183.513 32.5525C183.209 32.5525 183.482 32.035 184.305 31.0606C184.426 31.0297 184.457 30.8166 184.457 30.3907C184.548 30.3907 184.609 30.4211 184.67 30.4819L184.792 30.5426C184.914 30.5426 185.005 30.4515 185.096 30.2991L188.081 26.2193C189.755 24.0872 190.821 22.9605 191.187 22.869L191.034 22.3817H191.187C191.187 22.3211 191.369 22.3211 191.704 22.3817C191.673 21.9859 191.856 21.5902 192.192 21.1944L193.135 20.2507C193.256 20.2507 193.196 20.1592 192.983 19.9156V19.7932L193.47 19.9156V19.7932C193.532 19.7932 193.532 19.6422 193.47 19.307C193.593 19.307 193.683 19.3676 193.806 19.4592V19.6422H193.989L193.806 18.9719C194.079 18.941 194.323 18.758 194.566 18.4228L194.932 17.4791H195.266C195.266 17.2046 195.358 17.144 195.541 17.3579C195.632 17.2664 195.693 17.1143 195.754 16.8397C195.997 16.9312 196.242 16.7791 196.546 16.444C196.85 16.0791 197.032 15.7737 197.032 15.53C197.094 15.53 197.307 15.4088 197.703 15.1949L197.886 14.8609V15.013L198.069 14.8609C198.891 14.0384 199.531 13.1245 199.987 12.1202C200.566 10.8402 200.566 9.86682 199.987 9.16563H200.474C200.474 9.10501 200.353 8.80074 200.108 8.31346L199.5 6.85162L197.886 5.23878H197.703C197.703 5.14613 197.55 5.20791 197.215 5.39092V5.05577L195.45 4.72063C195.327 4.72063 195.206 4.78125 195.084 4.9025L195.266 4.56849L193.47 4.72063C193.47 4.62912 193.409 4.56849 193.318 4.56849C193.318 4.65885 193.256 4.72063 193.135 4.72063C193.135 4.81214 192.8 4.81214 192.161 4.72063V4.9025L188.599 4.72063C188.568 4.84188 188.355 4.9025 187.928 4.9025L186.619 5.05577C186.285 5.05577 185.919 5.17702 185.461 5.39092V5.23878C184.914 5.23878 184.03 5.57279 182.843 6.2122H182.539C182.508 6.33459 182.416 6.33459 182.203 6.2122H182.02V6.54736H181.685C181.685 6.45585 181.564 6.39523 181.32 6.39523H180.406C180.406 6.54736 180.223 6.60798 179.859 6.60798L177.788 7.09527L174.683 7.33891L172.215 7.15702C172.215 7.43155 171.82 7.49104 171.028 7.33891C170.235 7.21766 169.78 7.03464 169.597 6.85162C168.897 6.85162 168.196 6.76126 167.496 6.54736C167.496 6.66975 167.283 6.73037 166.917 6.76126L166.155 6.85162H166.003C166.003 6.76126 165.12 7.12615 163.385 8.0092C163.385 8.10071 163.324 8.16133 163.262 8.19222C163.262 8.10071 163.081 7.76555 162.775 7.15702L162.441 7.33891C162.228 7.33891 161.923 7.06552 161.467 6.51761L160.462 5.39092C160.278 5.39092 159.974 5.17701 159.608 4.78124L158.817 3.92908L155.711 1.94908C155.468 1.94908 154.615 1.61393 153.092 1.0054L150.017 0.274477L145.114 -5.01426e-05ZM143.469 30.5426V30.3907H143.622C143.622 30.4819 143.897 30.4211 144.444 30.2079V30.086H144.627L144.444 30.7254H144.627V30.5426C144.656 30.5426 144.779 30.3295 144.962 29.9336H144.779V29.7508C145.266 29.7508 145.784 29.9032 146.394 30.2079V30.086H146.576C146.576 29.9641 146.394 29.7508 146.058 29.4163C146.27 29.4163 146.362 29.3854 146.394 29.2639V29.0811C146.484 29.0811 146.607 29.2639 146.758 29.5989L147.855 29.4163C148.037 29.4163 148.129 29.3251 148.19 29.0811C148.373 29.0811 148.525 29.2639 148.677 29.5989H148.86V29.4163C148.921 29.4163 148.921 29.2639 148.86 28.9288L149.529 29.2639L149.681 28.5936L149.864 28.9288L150.352 29.4163L151.631 29.2639C151.631 29.0811 151.661 29.0811 151.722 29.2942L151.814 29.7508H151.966L153.58 29.5989V29.4163H153.763V29.5989H153.915C153.915 29.6901 153.822 29.8729 153.58 30.086H153.428C153.609 30.1772 153.822 30.2079 154.036 30.2079H154.919L155.406 30.7254C155.65 30.7254 155.742 30.6642 155.711 30.5426H155.864V30.7254C155.985 30.7254 155.985 30.8166 155.864 31.0606V31.2125L156.716 31.0606C156.685 31.1516 156.625 31.2125 156.533 31.2125V31.3653C156.625 31.3653 156.747 31.426 156.868 31.5475C156.654 31.5475 156.747 31.7303 157.112 32.0953L157.873 32.8268C157.873 32.9483 158.025 33.0399 158.33 33.1619H158.178C158.178 33.3441 158.36 33.5881 158.695 33.9532C159.061 34.3495 159.274 34.6539 159.304 34.8365H159.974C159.974 34.8974 159.822 35.0189 159.487 35.1408V35.3236C159.944 35.3236 160.157 35.6283 160.157 36.2677L160.4 37.1814C160.217 39.2216 159.487 40.4392 158.178 40.8351V41.0178C158.422 41.0178 158.36 41.1094 158.025 41.3534V41.5048H157.873V41.6876H157.691L157.539 41.3534C157.508 41.566 157.356 41.7179 157.081 41.9316L156.381 42.3275C156.35 42.449 156.319 42.5097 156.198 42.5097C156.198 42.3275 156.046 42.3275 155.711 42.5097H155.864L155.406 42.6621V42.9972H155.254V42.6621H155.071C155.071 42.8449 154.28 43.3015 152.726 44.0325L149.864 45.2505C147.55 45.5552 145.541 45.5856 143.775 45.2814C143.775 45.3725 143.622 45.3725 143.287 45.2814H143.135C143.135 45.4029 143.073 45.4337 142.952 45.4337V45.2814C142.373 45.2814 141.613 45.0981 140.638 44.7631C139.572 44.3064 139.024 43.8806 139.055 43.4538L138.568 43.3015V42.9972C138.445 42.9972 138.385 43.0276 138.385 43.1192C138.262 43.1192 138.08 42.6318 137.897 41.6876L137.654 39.891L137.745 38.5514C137.623 38.5514 137.531 38.4902 137.441 38.3991C137.867 38.3991 137.897 38.0644 137.562 37.4554C137.714 37.4249 137.775 37.3338 137.745 37.1202V36.7855C137.745 36.4196 137.928 35.8411 138.324 35.0493C138.719 34.1663 139.085 33.6489 139.389 33.4965L139.268 33.0703L139.055 32.7048H139.207C139.207 32.6132 139.298 32.5221 139.45 32.4609L139.724 32.2178C139.907 32.2178 140.12 32.309 140.333 32.5525L141.825 31.3653C141.734 31.3653 141.673 31.304 141.673 31.2125L142.344 31.0606H142.496C142.496 31.1516 142.404 31.2737 142.192 31.3653L142.008 32.0654H142.344V32.2178L142.831 31.6695C143.165 31.2737 143.469 31.0606 143.775 31.0606L143.469 30.5426ZM169.597 15.6833C169.81 15.6833 169.962 15.53 170.114 15.1949V15.013H170.266L170.114 15.53H170.601C170.601 15.1343 171.028 14.8609 171.88 14.6778C172.429 14.6778 173.19 14.5555 174.134 14.2821C175.108 13.9469 175.87 13.7639 176.326 13.7342V13.5809C176.388 13.5809 176.388 13.7342 176.326 14.0693L176.966 13.9161C177.148 13.8863 177.27 13.8554 177.301 13.7342C177.301 13.6724 177.332 13.6427 177.362 13.6724L177.453 13.9161V14.0693C177.636 14.0693 177.818 13.9778 178.063 13.8245L178.702 13.4597L181.533 12.9117C181.533 12.6681 181.747 12.7893 182.203 13.2469C182.295 13.2469 182.356 13.0033 182.356 12.5766H184.334C185.005 12.4851 185.584 12.2117 186.131 11.7851H186.313L186.467 12.2415L187.014 12.2117L187.593 12.5766C187.593 12.699 187.654 12.7287 187.837 12.6681L188.233 12.4245C188.233 12.7287 188.476 12.7894 188.903 12.5766H189.085L188.903 13.0639H189.085L188.751 13.399C188.842 13.399 188.903 13.5203 188.903 13.7342C188.689 13.7342 188.628 13.8863 188.751 14.2215C188.751 14.3427 188.689 14.4045 188.599 14.4045C188.568 14.4948 188.507 14.5555 188.416 14.5555V14.8609C188.476 14.8609 188.476 15.0736 188.416 15.53C188.416 15.6524 188.264 15.8652 187.959 16.1694C187.685 16.444 187.562 16.6876 187.593 16.8397L186.924 17.9664H186.497C186.558 18.2707 186.497 18.3622 186.313 18.3016C186.285 18.4537 186.04 18.9719 185.523 19.7932L184.457 21.255L184.305 21.5902C184.122 21.772 183.909 22.0168 183.726 22.3211L183.026 23.5393C183.026 23.6308 182.691 23.935 182.02 24.3606C182.02 24.666 181.443 25.5799 180.285 27.1012L176.326 32.5525V32.7048C176.235 32.7048 176.174 32.7352 176.174 32.8268H176.022L175.87 33.1619L175.626 33.4358C173.251 36.3893 172.063 37.912 172.063 38.0644H171.88C171.88 38.1555 171.82 38.2163 171.728 38.2163C171.728 38.1555 171.394 38.3387 170.753 38.7342V38.8861H170.45C170.419 38.7949 170.601 38.6733 170.936 38.5514V38.3991L169.78 38.2163V38.0644H169.597V37.9424L169.78 37.912C169.993 37.8513 169.932 37.7292 169.597 37.6073C169.566 36.6327 169.506 36.0237 169.444 35.7802C169.444 35.6587 169.383 35.5975 169.262 35.5975V35.4456L169.78 35.5975V35.4456H169.597C169.597 35.2932 169.506 35.2324 169.262 35.3236H169.11L169.262 35.1408C169.262 33.9836 169.231 33.2834 169.11 33.0091C169.231 33.0091 169.262 32.9483 169.262 32.8875L169.018 30.8778C168.958 30.086 169.018 29.4466 169.262 28.9288L169.17 28.4721C169.079 28.2898 169.049 28.1066 169.11 27.9239L168.805 26.9491L168.745 25.7618C168.714 25.3054 168.622 24.9394 168.5 24.6957L168.318 23.8744C168.47 23.8744 168.47 23.6308 168.318 23.1126L167.983 22.2604H168.166L167.648 20.4028L167.526 18.8804L167.496 18.7889C167.373 18.7889 167.313 18.7282 167.313 18.6367C167.435 18.6367 167.496 18.027 167.496 16.8397H167.83C167.952 16.8397 167.983 16.7791 167.983 16.6876C167.892 16.6876 167.769 16.5652 167.648 16.3524H167.496V16.1694L168.318 16.5046V16.0173H168.5V16.3524C168.562 16.3524 168.622 16.1397 168.622 15.6833H168.775L168.958 16.1694L169.597 16.0173V15.6833Z" fill="white"/>
<path fill-rule="evenodd" clip-rule="evenodd" d="M188.751 13.3992C188.628 13.3992 188.568 13.3386 188.599 13.247H188.416V13.5811C188.476 13.5811 188.599 13.5204 188.751 13.3992Z" fill="white"/>
<path fill-rule="evenodd" clip-rule="evenodd" d="M103.58 10.8404C103.244 9.68401 102.422 9.07547 101.174 9.01484C100.382 9.53186 99.8946 10.201 99.7432 11.0246L99.0729 15.6835C98.9813 16.5654 99.0112 17.2666 99.164 17.8145C99.1029 17.8145 99.0729 17.9666 99.0729 18.3018L98.5854 30.5428L97.6417 39.4346L97.8545 46.9866C97.8848 47.8695 98.1287 48.5702 98.4939 49.0875C99.6207 50.6406 101.539 51.1581 104.219 50.5495C105.406 50.2752 106.168 50.1537 106.503 50.184C107.994 50.3061 108.878 50.458 109.213 50.6406C109.456 50.7318 109.852 51.0361 110.37 51.4932C110.857 51.8887 111.253 52.133 111.619 52.2242L113.629 52.3765C114.481 52.4065 115.12 52.5285 115.516 52.8024L117.313 52.9548C117.313 53.0155 117.526 53.1374 117.982 53.2899C120.175 53.6857 121.576 53.5946 122.155 52.9548C122.763 52.3154 123.038 51.6152 122.916 50.8539C122.733 49.4834 121.941 48.5702 120.541 48.2046L116.491 48.0219L110.949 48.5393L109.243 49.0268C108.756 49.1179 108.117 49.1179 107.355 49.0268H107.02C107.02 49.1179 106.898 49.1787 106.686 49.1787C106.686 49.3007 106.624 49.3007 106.503 49.1787H106.229V49.5138H105.894V49.8489H105.711C105.711 49.7574 105.558 49.6358 105.224 49.4834L102.575 48.6001C101.691 48.2654 101.082 47.5956 100.777 46.5907C100.656 46.1336 100.595 45.3727 100.656 44.3066C100.686 42.6927 100.93 40.6221 101.326 38.095L101.752 36.4507L102.818 23.8746C102.909 22.2298 103.001 21.317 103.122 21.0733C103.122 19.3072 103.153 18.1794 103.214 17.6921C103.518 15.0738 103.64 13.5811 103.61 13.2471L103.671 12.0289C103.701 11.5416 103.671 11.115 103.58 10.8404Z" fill="white"/>
<path fill-rule="evenodd" clip-rule="evenodd" d="M153.58 8.49665H153.245V8.83179C153.397 8.83179 153.488 8.74029 153.58 8.49665Z" fill="white"/>
<path fill-rule="evenodd" clip-rule="evenodd" d="M194.597 18.637C194.475 18.637 194.505 18.6977 194.749 18.7892C194.749 18.6679 194.718 18.5455 194.597 18.4849V18.637Z" fill="white"/>
<path fill-rule="evenodd" clip-rule="evenodd" d="M192.313 21.7426C192.465 21.7426 192.465 21.5904 192.313 21.2553L192.161 21.5904C192.252 21.5904 192.313 21.651 192.313 21.7426Z" fill="white"/>
<path fill-rule="evenodd" clip-rule="evenodd" d="M160.827 48.5393C160.705 48.5094 160.644 48.4786 160.644 48.3571H160.462V48.6917C160.582 48.6917 160.705 48.6309 160.827 48.5393Z" fill="white"/>
<path fill-rule="evenodd" clip-rule="evenodd" d="M20.4179 20.251C20.4179 20.3116 20.1436 20.4328 19.5958 20.6467C18.6824 20.8904 17.6776 21.317 16.5811 21.9256L13.6879 23.5395C12.3484 24.2705 10.3994 25.9759 7.84181 28.6248L5.28378 31.0911L2.66499 35.0495C1.44742 36.755 0.868345 37.973 0.959487 38.7345C0.837953 38.7345 0.685592 39.1607 0.472458 40.0436C-0.106171 42.7237 -0.136551 44.2155 0.289717 44.5806C0.228944 45.434 0.411697 46.408 0.837953 47.5045L1.29505 48.9049C1.44742 49.4527 1.6601 49.9098 1.90361 50.2752L3.88346 51.7064C5.2534 52.8637 6.50137 53.5947 7.59785 53.9597L9.97361 55.2086L16.8246 55.9999L20.6311 55.7868L21.027 55.6344L24.1632 55.2997L25.5031 54.8431L27.0862 54.508C28.7921 53.9597 31.1058 52.8328 33.999 51.0063L35.1562 50.3364L36.4958 48.7221C38.262 46.4996 39.3282 44.5506 39.6936 42.9671C39.7848 42.4188 39.7544 41.6272 39.5712 40.5007C39.1758 38.3689 37.9269 36.7858 35.8259 35.689C33.9378 34.684 31.8064 34.2885 29.4011 34.4409L26.7819 34.8368C25.7775 34.806 24.6501 35.0495 23.3719 35.4762L20.2655 36.7858C20.2655 36.6639 20.1132 36.6639 19.8089 36.7246L19.1083 36.9377V37.1205C16.368 37.0902 14.2975 38.3993 12.9266 41.0181C12.8966 41.7491 13.0182 42.4188 13.201 42.9975C13.2313 43.241 13.3229 43.4233 13.4449 43.6673L14.0231 44.459C14.145 44.459 14.2366 44.5203 14.2975 44.7025L14.419 45.0681C15.2715 45.8902 15.7893 46.6212 16.0324 47.2914C16.0632 47.413 16.0937 48.1739 16.0632 49.5139C16.0632 50.3968 16.368 50.9451 16.977 51.1582V50.9754H17.1597C17.1597 49.362 17.2205 48.4477 17.3121 48.2351C17.3121 47.9303 17.7075 47.5045 18.5297 46.9562L20.1436 45.7687C20.296 45.6466 20.5395 45.1596 20.9657 44.3375L21.2092 43.4541C21.2092 42.5409 21.4228 41.8103 21.7883 41.2616L22.8844 40.0436L24.4982 39.3435L26.7217 38.7345C27.9392 38.4296 28.7309 38.3993 29.0656 38.5517C30.4968 38.5517 31.8064 38.7648 32.9637 39.1607C34.5168 39.6785 35.3997 40.4698 35.6128 41.5663C35.7044 41.8706 35.6432 42.4801 35.4301 43.3017C35.1866 44.4894 34.6991 45.5252 33.9681 46.408C31.9284 48.8745 28.7921 50.7016 24.4982 51.8284C23.0975 52.1935 22.1842 52.3458 21.7271 52.285V52.4678L21.0568 52.6201C16.3072 52.6201 12.8051 52.2547 10.4607 51.4629C6.80609 50.2448 4.73555 47.8696 4.1873 44.459C3.88346 41.901 4.21768 39.8613 5.19263 38.3689L6.77571 35.3543C7.41555 34.1362 8.1765 33.3146 8.96828 32.827C10.5826 31.122 11.4655 30.1475 11.587 29.9339C11.7091 29.9339 11.7394 30.0251 11.7698 30.2082H12.0741C12.0741 29.8427 12.6532 29.2337 13.7795 28.3508C16.9162 25.8536 21.1794 23.8747 26.6296 22.382L29.5531 21.9256C31.4713 21.9256 32.8118 22.0171 33.5726 22.2298L36.5262 23.2959C38.9926 22.0777 40.1195 21.1329 39.9063 20.3722C39.5712 19.3679 38.7799 18.6061 37.5315 18.1497C37.1352 17.9667 36.0087 17.6922 34.1209 17.2975L33.7859 17.4794L31.5017 17.6315C31.5017 17.4497 31.1974 17.5709 30.558 17.9667L28.2439 18.1794C27.2998 18.271 26.5384 18.2412 25.9902 18.1497L24.8334 18.4849V18.637H24.4982C24.072 18.8497 23.6453 19.0625 23.2195 19.2146L21.5448 19.7934C21.4228 19.7934 21.3616 19.8849 21.3925 20.0988C21.2092 20.0679 20.9358 20.1903 20.6007 20.4031C20.6007 20.3116 20.5395 20.251 20.4179 20.251Z" fill="white"/>
<path fill-rule="evenodd" clip-rule="evenodd" d="M36.5262 23.2959C37.5614 23.5693 38.5055 23.2662 39.3585 22.382L36.5262 23.2959Z" fill="white"/>
<path fill-rule="evenodd" clip-rule="evenodd" d="M65.3328 13.2471C64.7243 13.4908 64.4196 13.6429 64.3892 13.7344C64.084 13.7344 63.8106 13.9472 63.5063 14.4047L62.8969 15.3781C62.6837 15.5303 62.379 15.6836 61.9223 15.8654V16.0176C61.8312 16.0176 61.7704 15.9569 61.7704 15.8654C61.6484 15.8654 61.5264 15.9272 61.4353 16.0176H61.6181L61.4045 16.1091C60.6435 16.474 59.913 16.84 59.1516 17.2049C58.3902 17.6922 57.7508 18.271 57.3246 18.9721C57.4158 18.9721 57.4461 19.1849 57.4461 19.6424C57.4461 20.1903 57.7205 20.7074 58.2986 21.1638C58.8773 21.651 59.5475 21.9256 60.2173 21.9564L62.4094 21.7425C62.5617 21.7425 62.6538 21.5904 62.7141 21.2553H63.0493C63.0493 21.5595 63.1707 21.8032 63.3838 21.9256C63.5362 21.9256 63.6278 22.0171 63.7194 22.2607C63.9018 22.8692 64.0237 24.1172 64.084 25.9759L64.7243 32.2181V32.37C64.6327 32.37 64.572 32.6135 64.5412 33.0706C64.5108 33.5884 64.45 33.8922 64.3892 33.9838C64.3892 34.1362 64.2363 34.0754 63.9316 33.8011L63.3535 33.192C62.1354 31.2435 60.4304 29.5689 58.2383 28.2289L56.2893 27.0111C56.0149 26.8281 55.6803 26.4621 55.2536 25.9142C54.8577 25.3971 54.523 25.062 54.2491 24.8481C54.2491 24.4226 53.3962 24.1789 51.63 24.2098C51.63 24.3013 51.5388 24.4226 51.3256 24.5141V24.3608L51.1429 24.3917C48.7985 25.1226 47.0014 26.3408 45.7534 28.1068L43.7431 32.5527C43.1037 34.1362 42.8603 35.0191 42.9513 35.141L42.4639 36.9985L42.4947 39.7696C42.5559 41.2925 42.6775 42.1445 42.7994 42.3278C42.7994 43.0891 43.0734 44.0935 43.5907 45.3728C44.1087 46.6212 44.6265 47.5345 45.1135 48.1439C45.8137 49.0268 46.5148 49.5447 47.2449 49.7882C48.4937 50.1538 50.3207 49.9705 52.7263 49.2704C54.9185 48.6002 56.5632 47.8392 57.6293 46.9867L61.161 43.3326L63.7194 41.5051C63.7194 41.4139 63.7802 41.3537 63.9018 41.3537L64.0541 41.7491L64.3284 42.0842L64.9978 43.9412C64.9066 43.9412 64.8758 44.1543 64.9674 44.4894L65.1809 45.2816L65.6376 48.2655C65.8204 49.4835 65.8806 50.4883 65.8508 51.3105L65.5461 54.8431C65.4852 55.9391 65.7592 57.0655 66.3378 58.1929C66.3378 58.3148 66.5509 58.3443 67.008 58.3443C67.008 58.5276 67.1295 58.6795 67.3735 58.8621L67.9512 59.1361C68.1648 59.1361 68.1345 59.5627 67.8605 60.3849L67.3427 61.9072H67.4951V62.09H67.9512L68.2564 61.0855C68.4999 60.2938 68.7439 59.776 68.8958 59.5627L70.5401 58.3148C71.2407 57.797 71.6366 57.2487 71.7278 56.6701C71.8493 55.9694 71.8189 55.2086 71.6366 54.4168L71.1491 52.285L70.9355 44.9157C70.9051 44.459 70.9663 44.0631 71.0884 43.7893C71.0575 43.6065 71.1795 43.4541 71.3926 43.3017C71.3926 42.9367 72.1844 42.7839 73.7375 42.9367C74.864 43.0279 76.082 43.6065 77.4224 44.6113C78.0614 45.1293 79.097 46.0734 80.4975 47.5045C82.0506 49.0268 82.8722 49.9401 83.0246 50.1538C83.9687 51.5844 84.8516 52.5285 85.6746 52.9851C86.3136 53.29 86.9226 53.1375 87.5013 52.5285C88.1102 51.8284 88.3538 51.1582 88.2626 50.5188C88.1407 49.7882 87.4708 48.6002 86.2224 47.0778C85.1564 45.799 84.1515 44.7634 83.2685 44.0023L80.9844 42.2361C79.98 41.4139 79.4014 40.7133 79.2794 40.1352C79.2186 39.8001 79.2494 39.4958 79.4622 39.2523L82.1113 36.9985L85.0952 33.6184C85.8874 32.5835 86.4048 31.6086 86.588 30.6645C87.0751 28.3508 87.0751 26.493 86.588 25.062C85.7355 22.6862 84.0296 20.5552 81.4416 18.6679C79.2186 17.0836 76.7214 15.9272 73.9203 15.1345L68.4392 14.4345C68.0129 14.3738 66.9771 13.9472 65.3328 13.2471ZM51.4775 30.5429C51.4775 30.6952 51.7823 30.6952 52.4216 30.6345L53.6097 30.391C53.9444 30.6041 54.6446 30.9388 55.6803 31.3655C56.5632 31.7305 57.233 32.1264 57.7508 32.4919C58.2074 32.8575 58.6642 33.4053 59.1208 34.1666C59.6691 35.0803 60.0345 35.6889 60.2781 35.9328C60.2173 35.9328 60.2476 36.4508 60.3089 37.4556C60.4 38.4905 60.278 39.1299 59.9429 39.3742C59.9429 40.4698 59.6998 41.4139 59.212 42.2973C58.2683 43.85 56.7459 45.1596 54.6446 46.2861C52.1781 47.5345 50.2904 47.6868 48.8892 46.6515C47.3668 45.5252 46.5148 43.3934 46.3012 40.2263C46.0577 37.1817 46.5148 34.8368 47.6103 33.192C47.9758 32.6747 48.5545 32.1876 49.407 31.7001L51.4775 30.5429ZM69.9002 19.3073L70.7537 19.1243H71.0884C71.0575 19.2146 71.271 19.2764 71.6973 19.3073H72.5195C73.5547 19.4285 74.864 19.9158 76.3867 20.768C78.5484 21.9862 80.0407 23.1129 80.8933 24.1172C82.1725 25.6705 82.5072 27.4366 81.8678 29.4165C81.8678 29.4165 81.8374 29.6599 81.6855 30.0863H81.5331L81.6855 30.2082C81.6855 30.3298 81.6243 30.4517 81.5331 30.5429L81.3195 30.9692L80.9844 31.3347C80.3754 32.3092 79.5538 33.1622 78.4573 33.9535L75.473 35.9328C74.9859 35.9328 74.4377 35.7805 73.7983 35.4762L72.2456 34.8368L70.8753 34.684C70.2662 34.6541 69.8698 34.5316 69.6264 34.2885C69.2608 33.9231 68.8958 32.9789 68.5916 31.4567C68.2255 29.9643 67.9821 28.3508 67.8298 26.6451C67.4951 22.2607 67.9821 19.9467 69.2917 19.6424C69.2917 19.4892 69.5048 19.3679 69.9002 19.3073Z" fill="white"/>
<path fill-rule="evenodd" clip-rule="evenodd" d="M92.9823 5.23898L92.0994 5.78574C91.7344 5.93788 91.46 6.09116 91.2769 6.30391C90.6991 6.94333 90.516 7.82638 90.7598 8.86156C90.973 9.86701 91.4292 10.6277 92.1602 11.115C92.1602 11.2374 92.4953 11.298 93.1651 11.298C94.2003 11.0543 94.8094 10.9022 94.9313 10.7501C95.51 10.2925 95.7231 9.53187 95.51 8.49668C95.3577 7.58274 94.9916 6.85182 94.4747 6.30391L92.9823 5.23898Z" fill="white"/>
<path fill-rule="evenodd" clip-rule="evenodd" d="M93.4694 21.865C93.5306 21.0117 93.5002 20.3116 93.4091 19.7935C93.3474 19.368 92.9212 18.7892 92.1603 18.1498C91.4292 18.5455 91.0029 18.9104 90.8207 19.2147C90.6684 19.4892 90.4856 20.2819 90.2725 21.5905C90.0592 23.0214 89.8154 24.1172 89.5719 24.9099L89.5419 25.0003L89.176 27.1633L89.4195 36.7858C89.4195 39.1607 89.4802 40.8354 89.5719 41.8103C89.8154 43.6065 90.2725 45.0681 91.0029 46.2254C90.9731 46.1337 91.0945 46.1337 91.3076 46.2254V46.0735C91.8251 46.6516 92.1603 46.9867 92.3122 47.0779V46.8951L93.5306 45.5252C93.7437 45.1293 93.8046 44.6114 93.7437 43.9412L93.4694 42.3278L93.561 40.2263L93.4091 38.8864L93.8653 26.9803L93.439 23.996L93.4694 21.865Z" fill="white"/>
</svg>
