<svg width="216" height="65" viewBox="0 0 216 65" fill="none" xmlns="http://www.w3.org/2000/svg">
<g clip-path="url(#clip0_65_2)">
<path d="M216 52.6145L201.105 32.6231L214.713 14.473H209.6L198.532 29.2819L187.463 14.473H182.384L195.964 32.6511L181.097 52.6425H186.21L198.532 36.0875L210.887 52.6425H216" fill="white"/>
<path d="M114.523 52.6145L99.6564 32.6231L113.236 14.473H108.157L97.0887 29.2819L86.0202 14.473H80.9073L94.5154 32.6511L79.6206 52.6425H84.7335L97.0887 36.0875L109.41 52.6425H114.523" fill="white"/>
<path d="M132.362 48.6184H120.979V34.7498H132.362C136.688 34.7498 141.835 35.9084 141.835 41.3707C141.835 47.6782 135.879 48.6184 132.362 48.6184ZM120.979 18.4411H132.362C135.435 18.4411 140.61 19.191 140.61 24.5023C140.61 28.4983 137.599 30.9049 132.362 30.9049H120.979V18.4411ZM142.807 34.0614C141.992 33.3731 141.144 32.8414 140.267 32.4664C143.06 30.9665 144.908 28.1234 144.908 24.8437C144.908 22.4091 143.998 14.473 132.334 14.473H116.624V30.9329H111.388C110.697 31.806 109.163 33.8991 108.567 34.7442H116.624V52.6145H132.334C140.863 52.6145 146.161 48.333 146.161 41.4603C146.195 38.466 145.032 35.9028 142.807 34.0614Z" fill="white"/>
<path d="M166.607 49.43C158.297 49.43 152.493 42.8987 152.493 33.5298C152.493 24.1609 158.297 17.6296 166.607 17.6296C174.883 17.6296 180.654 24.1609 180.654 33.5298C180.659 42.8707 174.889 49.43 166.607 49.43ZM166.607 13.6C155.696 13.6 148.105 21.7823 148.105 33.5298C148.105 45.2773 155.696 53.4596 166.607 53.4596C177.457 53.4596 185.047 45.2773 185.047 33.5298C185.047 21.7823 177.462 13.6 166.607 13.6Z" fill="white"/>
<path d="M29.3257 64.8641C24.312 64.3882 19.232 62.5907 14.8634 59.747C11.2037 57.3649 10.378 56.3912 10.378 54.4346C10.378 50.515 14.7037 43.6443 22.0946 35.8206C26.2969 31.3747 32.1442 26.1632 32.7751 26.3002C34.0071 26.5744 43.8399 36.1452 47.5204 40.6416C53.3456 47.7722 56.0277 53.6044 54.6646 56.2024C53.6286 58.1796 47.2153 62.0411 42.5054 63.5218C38.6224 64.749 33.5203 65.2688 29.3257 64.8641ZM5.44347 50.3637C2.40691 45.716 0.871101 41.133 0.124618 34.5145C-0.122046 32.3277 -0.0350643 31.0785 0.682857 26.5899C1.57474 20.9956 4.7619 14.5284 8.60206 10.5454C10.2391 8.8488 10.3845 8.80613 12.3773 9.47728C14.7972 10.2933 17.3768 12.0688 21.3844 15.6845L23.7252 17.7924L22.4503 19.3585C16.5161 26.6196 10.2625 36.912 7.90751 43.2784C6.62486 46.735 6.11076 50.215 6.66121 51.6582C7.02991 52.6306 6.68977 52.2698 5.44347 50.3637ZM58.7735 51.1512C59.0708 49.6938 58.6943 47.0079 57.8024 44.3013C55.8823 38.4406 49.4405 27.5275 43.5271 20.115L41.6654 17.7834L43.6803 15.9354C46.3105 13.5249 48.1371 12.0817 50.1078 10.861C51.6657 9.89369 53.883 9.04148 54.8398 9.04148C55.4266 9.04148 57.4986 11.1856 59.1733 13.5314C61.7672 17.1549 63.673 21.5581 64.6363 26.1334C65.2594 29.0922 65.3101 35.4223 64.7376 38.3669C64.2663 40.7851 63.2667 43.925 62.2956 46.0613C61.5634 47.6558 59.7523 50.7529 58.9552 51.7629C58.5489 52.2698 58.5489 52.2698 58.7735 51.1512ZM29.8619 7.93064C27.1304 6.54436 22.9202 5.06496 20.5938 4.66149C19.7746 4.52441 18.3907 4.44553 17.5001 4.4882C15.5801 4.58261 15.667 4.4882 18.7464 3.03726C21.304 1.83202 23.4421 1.12465 26.3398 0.518149C29.6009 -0.167235 35.7234 -0.174994 38.9326 0.503924C42.3963 1.23328 46.4753 2.74888 48.7732 4.15586L49.4548 4.57485L47.8891 4.49596C44.7734 4.3369 40.2373 5.59258 35.3612 7.96039C33.8903 8.67551 32.6154 9.24451 32.5207 9.22382C32.4337 9.2083 31.2315 8.62379 29.8619 7.93064Z" fill="white"/>
</g>
<defs>
<clipPath id="clip0_65_2">
<rect width="216" height="65" fill="white"/>
</clipPath>
</defs>
</svg>
