<svg width="157" height="62" viewBox="0 0 157 62" fill="none" xmlns="http://www.w3.org/2000/svg">
<path d="M48.7117 51.912C48.7117 55.188 47.032 56.952 44.3445 56.952C41.6569 56.952 39.9772 55.188 39.9772 51.912V33.936H34.3502V50.064C34.3502 58.128 37.9616 61.824 44.3445 61.824C50.6434 61.824 54.3388 58.044 54.3388 50.064V33.936H48.7117V51.912ZM16.5452 44.688L14.8655 49.644L13.3537 44.688L8.90249 33.936H1.7637V61.488H8.31459V48.468L9.15445 51.996L12.5979 61.488H17.3011L20.7445 51.996L21.5843 48.468V61.488H28.0512V33.936H20.9125L16.5452 44.688ZM71.4719 45.948L67.9445 44.436C65.089 43.26 64.3331 42.252 64.3331 40.824C64.3331 38.808 65.9288 37.548 68.1964 37.548C71.052 37.548 72.4797 39.312 72.8157 42.168H77.7708C77.0149 36.624 73.7395 33.516 68.3644 33.516C62.9893 33.516 59.3779 36.708 59.3779 40.908C59.3779 44.184 61.1416 46.62 66.0968 48.636L68.8683 49.728C72.1438 50.988 72.9836 52.416 72.9836 54.348C72.9836 56.532 71.6399 57.792 69.1203 57.792C66.0968 57.792 64.2491 55.944 63.6612 52.332H58.7061C59.3779 58.548 63.4092 61.824 69.0363 61.824C74.2434 61.824 78.0228 58.8 78.0228 54.096C78.1068 50.232 76.1751 47.88 71.4719 45.948ZM43.4206 17.052H36.6178C36.2818 21.168 35.358 22.512 33.4263 22.512C31.4107 22.512 30.4868 21.336 30.4868 18.06V10.584C30.4868 7.308 31.5786 6.132 33.4263 6.132C35.442 6.132 36.3658 7.476 36.6178 11.592H43.4206C42.8327 3.696 39.0534 0.251999 33.1744 0.251999C26.9594 0.251999 23.432 4.368 23.432 14.112V14.7C23.432 24.36 27.0434 28.56 33.1744 28.56C39.0534 28.392 42.8327 25.032 43.4206 17.052ZM117.412 2.52C120.939 2.52 123.207 4.788 123.795 9.744H126.483C125.895 3.696 122.535 0.0839995 117.328 0.0839995C111.197 0.0839995 107.922 4.788 107.922 12.432V15.96C107.922 23.772 111.281 28.308 117.328 28.308C122.787 28.308 125.895 24.696 126.483 18.648H123.795C123.207 23.772 120.939 25.956 117.412 25.956C112.877 25.956 110.777 22.428 110.777 15.792V11.34C110.777 5.88 113.213 2.52 117.412 2.52ZM10.5822 22.512C8.14662 22.512 7.13879 20.244 7.0548 18.144H0C0.335943 24.444 4.95516 28.392 10.6662 28.392C15.7893 28.392 19.9046 25.116 19.9046 20.16C19.9046 16.128 17.637 13.944 11.2541 11.256C8.31459 9.996 7.39075 9.072 7.39075 7.896C7.39075 6.636 8.56655 5.88 9.57438 5.88C11.758 5.88 12.4299 7.56 12.7658 9.24H19.7367C19.0648 3.696 15.2014 0 9.82633 0C4.7032 0 0.251957 3.024 0.251957 8.064C0.251957 11.508 2.43559 14.196 7.55872 16.38C11.842 18.144 12.5979 19.068 12.5979 20.328C12.8498 21.924 11.674 22.512 10.5822 22.512ZM77.6028 24.024H65.5929V16.128H76.931V12.012H65.5929V4.62H77.6028V0.504H60.9737V28.056H77.6028V24.024ZM48.7957 0.504H54.3388V28.056H48.7957V0.504ZM148.319 26.376H134.293V14.784H147.563V13.104H134.293V2.268H148.319V0.504H132.446V28.056H148.319V26.376ZM154.366 33.936L144.623 59.304L134.881 33.936H132.446V61.488H134.293V37.632L143.448 61.488H145.715L155.038 37.632V61.488H156.801V33.936H154.366ZM123.291 51.408C123.291 56.952 120.52 59.388 116.152 59.388C111.785 59.388 109.014 56.952 109.014 51.408V33.936H106.326V50.316C106.326 58.548 110.105 61.908 116.068 61.908C122.031 61.908 125.979 58.548 125.979 50.316V33.936H123.291V51.408ZM83.3979 61.488H100.531V58.128H87.0932V49.056H99.6911V45.696H87.0932V37.296H100.531V33.936H83.3979V61.488ZM98.5993 21.42L97.3395 18.564L87.3452 0.504H83.3979V28.056H87.0932V6.972L88.353 10.08L98.4313 28.056H102.379V0.504H98.5993V21.42Z" fill="white"/>
</svg>
