<svg width="275" height="41" viewBox="0 0 275 41" fill="none" xmlns="http://www.w3.org/2000/svg">
<path fill-rule="evenodd" clip-rule="evenodd" d="M27.1423 38.845H16.8851V26.0925C16.8851 23.5302 15.7553 21.5569 13.6742 21.498C11.6524 21.4391 10.3146 23.6186 10.3146 25.8569V38.845H-0.0020752V27.1822C-0.0020752 23.6186 1.00878 20.6439 2.79263 18.3173C4.7846 15.755 8.41178 13.3399 12.7822 13.0749C17.0932 12.8098 20.1555 14.4591 22.6232 16.5502C24.8827 18.4645 27.1125 22.0871 27.1125 25.2679V38.845H27.1423ZM132.122 7.92084C132.122 6.38935 132.301 4.76951 131.973 3.65035C131.557 2.20722 130.219 0.881897 129 0.410671C125.879 -0.885201 122.995 1.14696 122.192 3.17912C121.687 4.44555 121.865 6.3599 121.865 8.24481C121.865 18.1406 121.865 29.4794 121.865 38.845H132.122C132.122 29.2144 132.122 17.9049 132.122 7.92084ZM165.153 17.9933C163.637 19.8193 162.24 22.411 162.031 25.4446C161.704 30.4513 163.667 33.691 165.956 35.9882C167.918 37.9615 170.802 39.6991 174.281 39.9642C178.532 40.2587 181.565 38.904 184.032 37.0191C186.351 35.252 188.314 32.3362 188.908 29.1849C189.265 27.3589 189.146 23.0884 189.146 23.0884V4.5928C189.146 2.73735 187.481 1.05861 185.786 0.410671C182.516 -0.826297 178.621 1.61819 178.77 5.388C178.859 7.44961 178.829 13.5756 178.829 13.5756C172.675 12.0441 167.829 14.7536 165.153 17.9933ZM175.262 20.5261C177.492 20.1433 178.681 23.2062 178.859 25.5329C179.097 28.6548 177.997 32.2479 176.064 32.6013C173.389 33.0725 172.14 29.0966 172.289 25.9452C172.408 23.7069 173.27 20.8796 175.262 20.5261ZM93.6503 20.4083C95.4639 17.2865 92.9071 14.0173 90.9151 13.2516C90.3799 13.0454 89.4286 12.8393 88.4474 12.9276C85.8014 13.1927 84.6121 15.2543 83.5716 17.1392C82.5607 18.9357 79.8849 23.5597 79.8849 23.5597V17.6693C79.8849 15.7255 78.22 13.0454 74.5334 13.016C71.6197 13.016 69.5683 15.5783 69.5683 18.1406V38.8156H79.8849V30.7164L85.3257 38.8156H93.353C95.5531 38.8156 95.7612 36.9307 94.899 35.6348C93.3233 33.2492 89.4583 27.5651 89.4583 27.5651C89.4583 27.5651 91.8368 23.5008 93.6503 20.4083ZM59.4598 14.1057C54.0487 11.8674 48.0728 13.8112 44.8916 16.9625C42.6915 19.1419 41.1158 22.0282 40.8779 25.4446C40.5806 30.2157 42.2158 33.3965 44.8024 35.9882C46.8539 38.0793 49.6188 39.6991 53.0379 39.9642C56.3975 40.2293 58.8949 39.4635 61.0355 38.2855C63.6816 36.8423 65.6141 34.6335 66.8033 31.9534C67.3087 30.7753 67.7844 29.5089 67.9331 27.8301H57.6165C57.3786 30.0096 56.4272 32.6602 54.4055 32.6602C52.3838 32.6602 51.254 29.6267 51.1351 27.1233C51.0162 25.1795 51.5216 23.0001 52.2649 21.8809C52.6811 21.233 53.5136 20.4672 54.4352 20.4672C55.5353 20.4672 56.2786 21.4097 56.7543 22.2049C57.2894 23.1473 57.5273 24.1192 57.6462 25.2973H67.9628C67.279 19.8193 64.0086 15.9906 59.4598 14.1057ZM117.078 17.0508C114.848 14.7536 111.311 12.7804 106.672 13.0749C100.786 13.4577 96.7424 17.1981 94.9882 21.4686C93.9476 24.0309 93.6503 27.0939 94.3341 29.8623C95.0774 32.8369 97.0694 35.4287 99.1208 37.078C100.934 38.5211 103.64 39.7286 106.494 39.9348C109.527 40.1409 111.638 39.4635 113.689 38.4327C117.405 36.5478 119.308 34.0739 120.17 29.3027H111.043C110.181 30.6575 109.319 32.6013 107.356 32.4835C105.364 32.3657 104.621 29.6856 104.324 27.889H120.319C120.795 23.0884 119.487 19.4953 117.078 17.0508ZM110.508 24.0898H104.502C104.71 21.9104 106.91 19.083 108.992 20.909C109.735 21.5864 110.27 22.8823 110.508 24.0898ZM141.309 14.4296C139.852 15.107 138.604 15.9906 137.622 16.9625C135.541 19.0241 133.876 21.7631 133.609 25.2973C133.222 30.5102 135.363 34.0739 138.009 36.4889C140.536 38.7862 143.896 40.082 147.701 39.9642C151.477 39.8464 154.51 38.2266 156.829 35.9293C158.939 33.8088 160.723 30.687 160.753 26.6521C160.753 22.3227 158.85 18.9947 156.591 16.9036C154.301 14.7831 150.823 12.8393 146.334 13.1632C144.282 13.3105 142.796 13.7228 141.309 14.4296ZM146.75 20.5261C149.515 19.9666 150.645 24.2959 150.436 27.4178C150.258 29.8329 149.158 32.3068 147.642 32.5719C147.374 32.6308 146.928 32.6013 146.75 32.5719C144.728 32.2479 143.658 28.6842 143.866 25.7685C144.015 23.7364 144.728 21.8515 145.709 20.9974C145.947 20.8207 146.363 20.6145 146.75 20.5261ZM209.75 14.3413C207.906 13.4872 205.706 12.8982 203.179 13.0749C199.403 13.3399 196.727 14.8714 194.527 17.0508C191.911 19.6426 190.157 22.9412 190.514 27.8301C190.93 33.1314 194.676 37.2547 198.928 39.0218C201.574 40.1115 204.666 40.2882 207.401 39.5813C212.515 38.2855 215.874 34.8102 216.677 29.3616H207.549C206.717 30.7459 205.885 32.6308 203.952 32.5424C201.871 32.4246 201.157 29.8623 200.92 27.9479H216.915C217.509 20.8501 214.388 16.5502 209.75 14.3413ZM207.044 24.1781H201.098C201.455 22.2932 202.466 20.0255 204.695 20.4967C206.033 20.7617 206.806 22.7056 207.044 24.1781ZM221.91 17.6104C219.947 19.7898 218.134 23.059 218.461 27.5945C218.758 31.4821 220.601 34.3979 222.95 36.5478C225.329 38.7272 228.926 40.1998 233.029 39.9642C237.013 39.7286 239.867 37.8437 242.067 35.517C244.208 33.2492 245.902 29.8918 245.575 25.6213C245.456 23.7364 244.862 22.0282 244.059 20.4672C241.918 16.344 237.518 12.692 231.096 13.1632C227.023 13.4872 223.902 15.3426 221.91 17.6104ZM231.661 20.5261C233.861 20.1433 235.051 23.0884 235.259 25.2089C235.586 28.3308 234.515 32.2184 232.464 32.5719C231.156 32.8075 230.175 31.8356 229.669 30.8931C228.064 28.0363 228.658 22.6172 230.561 20.9974C230.799 20.7912 231.245 20.6145 231.661 20.5261ZM273.998 25.2973C273.998 22.1165 271.768 18.494 269.509 16.5796C267.041 14.4886 263.979 12.8393 259.668 13.1043C255.297 13.3694 251.64 15.755 249.678 18.3467C247.894 20.6734 246.884 23.6775 246.884 27.2117V38.8745H257.2V25.8274C257.2 23.5891 258.538 21.4097 260.56 21.4686C262.611 21.5275 263.771 23.5008 263.771 26.063V38.8156H274.028V25.2973H273.998ZM39.3617 24.4138C39.3617 22.735 39.3617 21.0268 39.1833 19.5837C38.9752 18.0522 38.113 16.9919 37.1319 16.02C36.448 15.3132 35.2885 14.518 35.2885 13.4872C35.2885 12.5742 36.2994 11.7201 36.9832 11.0427C37.6967 10.3064 38.6184 9.59958 39.0644 8.89274C40.6104 6.50716 39.986 3.47364 38.2616 1.67709C37.0129 0.822994 35.8832 -0.0605548 33.7723 0.0867034C30.8884 0.322316 28.3612 2.73735 28.4802 6.03593C28.5991 8.50987 29.9964 9.54068 31.364 10.866C32.1073 11.6023 33.1479 12.6331 33.1182 13.5756C33.0884 14.518 32.0479 15.3132 31.364 16.02C30.6208 16.7858 29.9964 17.5221 29.6397 18.3173C28.9856 19.7604 29.045 22.1754 29.045 24.3548V38.8745H39.3617V24.4138Z" fill="white"/>
</svg>
