<svg width="173" height="61" viewBox="0 0 173 61" fill="none" xmlns="http://www.w3.org/2000/svg">
<path d="M19.085 60.9724C13.9306 60.7715 9.71056 59.3739 6.41575 56.784C5.78838 56.2884 4.28541 54.8059 3.78442 54.1763C2.44844 52.5152 1.53673 50.8943 0.931925 49.0993C-0.936637 43.5713 0.0292375 36.3152 3.67609 28.3492C6.80391 21.5352 11.6288 14.7748 20.0463 5.40664C21.2875 4.02688 24.9795 -0.000793457 25.0021 -0.000793457C25.0111 -0.000793457 24.8125 0.343032 24.5553 0.767233C22.3662 4.39303 20.4932 8.66629 19.4731 12.3635C17.8347 18.2979 18.0333 23.3927 20.0508 27.34C21.4455 30.0594 23.8331 32.417 26.5186 33.7209C31.2216 36.0027 38.1091 36.1902 46.5176 34.2746C47.0954 34.1406 75.7873 26.6077 110.274 17.5298C144.762 8.45196 172.984 1.03068 172.989 1.03515C172.998 1.04408 92.8616 34.9667 51.2613 52.5688C44.6716 55.3551 42.9114 56.0606 39.8152 57.1368C31.9076 59.8874 24.817 61.2002 19.085 60.9724Z" fill="white"/>
</svg>
