<svg width="241" height="104" viewBox="0 0 241 104" fill="none" xmlns="http://www.w3.org/2000/svg">
<path fill-rule="evenodd" clip-rule="evenodd" d="M37.75 90.463C38.766 89.865 41.05 88.646 41.323 88.481C41.76 88.22 42.021 88.253 42.035 88.388C42.09 88.906 42.075 89.998 42.736 90.221C42.926 90.284 43.421 90.053 43.51 90.185C43.75 90.543 43.766 90.478 43.83 90.583C43.906 90.713 44.236 90.639 44.307 90.706C44.49 90.872 44.295 91.092 44.401 91.208C44.572 91.39 44.892 91.092 45.054 91.125C45.35 91.183 45.424 91.515 45.374 91.73C45.291 92.081 45.508 92.35 46.084 91.873C46.384 91.621 46.404 91.75 46.663 91.621C46.817 91.545 47.072 91.553 47.181 91.662C47.291 91.77 47.463 91.96 47.625 92.02C47.865 92.11 48.122 92.018 48.269 92.079C48.494 92.169 48.5 92.496 48.691 92.523C48.88 92.551 49.074 92.182 49.197 92.295C49.54 92.618 48.907 93.175 49.345 93.298C49.583 93.364 49.679 93.176 49.869 93.148C50.059 93.119 50.169 92.894 50.334 92.894C50.497 92.894 50.618 93.088 50.824 92.974C50.994 92.883 51.128 92.814 51.286 92.721C51.516 92.582 51.756 92.651 51.889 92.541C52.052 92.411 51.929 92.053 52.407 92.141C52.9 92.233 52.329 92.684 52.545 92.867C52.713 93.008 53.119 92.872 53.25 92.827C53.518 92.74 53.763 92.413 53.852 92.187C53.962 91.914 54.372 91.014 54.533 90.772C54.697 90.525 55.106 89.572 55.323 89.244C55.543 88.921 56.413 87.528 56.496 87.313C56.576 87.093 56.89 86.794 56.97 86.631C57.053 86.467 57.23 85.922 57.448 85.484C57.667 85.051 58.265 84.178 58.322 84.015C58.375 83.852 58.836 82.79 59 82.463C59.164 82.136 59.737 81.388 59.874 81.033C60.01 80.679 60.389 79.929 60.389 79.929L60.798 79.249C60.798 79.249 60.934 78.949 61.124 78.541C61.317 78.131 61.888 77.261 62.053 76.96C62.215 76.66 62.678 76.033 62.678 76.033L63.032 75.245L63.304 74.646C63.304 74.646 63.523 73.937 63.632 73.746C63.74 73.557 64.121 73.093 64.232 72.848C64.34 72.601 64.667 71.511 64.832 71.186C64.995 70.858 65.783 69.445 65.866 69.17C65.946 68.899 66.764 67.427 66.846 67.13C66.928 66.827 66.956 66.42 67.062 66.227C67.172 66.039 67.5 65.546 67.554 65.41C67.608 65.275 68.153 63.967 68.235 63.777C68.317 63.587 68.372 63.231 68.59 63.231C68.807 63.231 68.964 63.467 69.107 63.667C69.27 63.9 69.597 63.859 69.789 64.048C69.979 64.24 70.604 64.921 70.634 65.03C70.659 65.139 71.013 65.167 71.094 65.275C71.177 65.385 71.232 65.658 71.34 65.711C71.45 65.765 71.995 66.145 72.102 66.31C72.212 66.473 72.347 66.803 72.485 66.91C72.62 67.019 73.246 67.402 73.327 67.563C73.409 67.726 74.309 68.815 74.417 69.006C74.527 69.196 74.609 69.525 74.689 69.662C74.772 69.796 75.097 69.988 75.127 70.124C75.152 70.261 75.181 70.751 75.263 70.887C75.343 71.024 75.723 71.187 75.779 71.323C75.834 71.459 75.999 71.976 76.081 72.059C76.162 72.139 76.323 72.25 76.377 72.356C76.433 72.466 76.49 73.068 76.57 73.173C76.65 73.283 76.923 73.746 77.004 73.937C77.087 74.126 77.362 74.481 77.414 74.617C77.468 74.752 77.494 75.301 77.55 75.487C77.605 75.68 77.85 76.087 77.876 76.2C77.905 76.307 77.96 76.634 77.96 76.634L78.177 77.152C78.177 77.152 78.422 77.668 78.422 77.861C78.422 78.05 78.476 78.268 78.503 78.403C78.532 78.541 78.749 78.891 78.749 79.003C78.749 79.113 79.049 79.74 79.049 79.74C79.049 79.74 78.993 80.284 79.049 80.42C79.103 80.555 79.347 80.936 79.347 81.072C79.347 81.209 79.267 81.565 79.267 81.565L79.403 81.784C79.403 81.784 79.321 82.081 79.376 82.19C79.429 82.298 79.321 82.546 79.403 82.626C79.483 82.708 79.702 83.284 79.702 83.284C79.538 83.475 68.176 88.73 63.304 91.001C56.286 94.278 41.696 101.595 40.144 102.493C38.592 103.391 37.613 103.909 37.236 103.716C36.375 103.271 34.972 102.026 34.013 99.357C33.201 97.107 33.198 95.234 33.265 94.295C33.318 93.575 33.262 93.037 34.352 92.408C34.732 92.188 36.734 91.063 37.75 90.463ZM17.545 50.227C17.487 50.103 17.425 49.889 17.585 49.737C17.746 49.581 17.967 49.373 18.158 49.327C18.321 49.287 18.248 49.005 18.763 48.931C19.183 48.871 19.406 48.365 19.597 48.034C19.717 47.822 20.522 47.289 21.253 46.838C22.668 45.958 26.094 44.033 32.498 40.705C40.963 36.308 54.845 29.995 66.491 25.617C79.023 20.903 96.019 15.958 99.722 14.991C100.108 14.892 100.484 14.667 100.813 14.613C101.139 14.556 101.466 14.721 102.227 14.556C102.991 14.396 103.099 14.176 103.373 14.122C103.646 14.067 104.025 14.176 104.19 14.23C104.352 14.285 104.843 14.285 105.007 14.395C105.171 14.502 105.224 14.667 105.224 14.885C105.224 15.101 105.552 15.32 105.552 15.32C105.552 15.32 105.834 15.456 105.879 15.647C105.921 15.835 105.824 16.354 105.824 16.354C105.824 16.354 106.074 16.336 106.149 16.574C106.229 16.81 106.149 16.954 106.149 16.954C106.149 16.954 106.479 17.17 106.585 17.444C106.695 17.717 106.585 18.534 106.695 18.805C106.803 19.078 107.411 19.387 107.512 19.733C107.616 20.077 107.567 20.551 107.567 20.551C107.567 20.551 107.948 20.604 107.893 20.983C107.839 21.367 107.349 22.238 107.349 22.456C107.349 22.675 107.677 23.274 107.567 23.708C107.458 24.146 107.242 24.198 107.113 24.275C106.981 24.353 105.919 24.516 105.442 24.635C100.888 25.772 76.948 31.915 63.115 37.274C54.23 40.714 44.553 43.964 32.28 49.857C31.95 50.017 31.149 50.431 31.149 50.431C31.149 50.431 30.133 50.961 29.753 51.124C29.372 51.286 28.468 51.874 28.468 51.874C28.468 51.874 27.731 52.307 27.65 51.82C27.596 51.492 27.279 51.641 26.978 51.526C26.728 51.43 26.573 51.219 26.499 51.145C26.337 50.983 25.824 51.26 25.553 51.371C25.28 51.478 25.423 51.784 25.034 51.82C24.648 51.855 24.445 52.502 24.054 52.583C23.662 52.662 22.843 53.1 22.42 53.291C22.197 53.39 21.784 53.847 21.494 54.109C21.211 54.36 20.389 54.626 20.118 54.517C19.846 54.406 20.115 52.902 19.805 52.363C19.684 52.153 19.805 51.901 19.751 51.738C19.696 51.576 19.478 51.602 19.314 51.548C19.151 51.492 19.096 51.218 18.988 51.056C18.878 50.894 18.914 50.713 18.734 50.578C18.679 50.535 18.517 50.591 18.404 50.578C18.292 50.565 18.112 50.392 18.014 50.368C17.842 50.322 17.602 50.348 17.545 50.227ZM70.455 42.626C69.888 42.286 70.082 41.968 70.74 41.687C74.794 39.953 85.03 36.305 90.895 34.441C95.906 32.852 109.745 28.345 113.605 27.234C114.528 26.97 114.903 26.98 115.314 27.414C116.357 28.524 117.374 30.019 118.331 31.875C119.216 33.588 119.977 36.065 120.277 37.622C120.497 38.762 119.973 38.957 119.353 39.235C115.07 41.151 104.503 45.779 100.108 47.855C95.815 49.883 87.96 53.659 85.298 54.998C84.175 55.563 84.362 55.796 83.598 54.924C83.367 54.663 82.997 54.054 82.891 53.89C82.781 53.724 81.31 52.418 81.145 52.255C80.983 52.09 80.165 51.11 79.949 50.948C79.728 50.783 79.021 49.804 78.804 49.694C78.586 49.586 78.216 49.409 78.055 49.247C77.89 49.082 77.605 48.741 77.442 48.634C77.277 48.523 76.909 48.142 76.909 48.142L76.406 47.679L75.97 47.187C75.97 47.187 75.588 46.7 75.317 46.591C75.045 46.481 74.664 46.047 74.555 45.879C74.445 45.719 73.573 44.629 73.137 44.355C72.5621 43.9952 71.995 43.6231 71.436 43.239C71.216 43.076 70.927 42.907 70.455 42.626ZM86.046 57.55C85.625 57.131 86.163 57.071 86.646 56.884C88.433 56.195 99.096 52.858 108.381 50.414C117.629 47.982 131.018 45.205 133.004 44.804C133.842 44.632 134.161 44.761 134.586 45.444C135.078 46.237 136.1 48.875 136.493 51.002C136.993 53.7 136.516 56.452 136.276 57.105C136.074 57.651 135.318 57.689 133.514 58.177C132.432 58.473 127.816 59.661 125.924 60.208C123.748 60.841 117.974 62.511 115.846 63.237C113.216 64.133 109.75 65.276 109.75 65.276L91.387 65.589C91.387 65.589 91.114 64.352 90.951 64.239C90.786 64.131 90.513 63.531 90.351 63.369C90.189 63.204 89.97 62.606 89.97 62.606C89.97 62.606 89.807 61.953 89.643 61.843C89.479 61.734 89.085 60.794 88.922 60.685C88.755 60.576 88.388 60.101 88.228 59.882C88.062 59.665 87.968 59.392 87.696 59.174C87.426 58.955 87.084 58.519 86.866 58.411C86.646 58.301 86.464 57.966 86.046 57.55ZM63.836 22.148C63.313 22.165 62.856 22.16 62.731 22.005C62.661 21.915 62.735 21.77 62.609 21.657C62.477 21.542 62.221 21.575 62.139 21.639C62.057 21.699 62.079 21.699 61.894 21.761C61.71 21.822 61.016 21.575 60.77 21.657C60.525 21.74 60.003 21.764 59.83 21.68C59.652 21.59 59.624 21.113 59.32 20.983C59.159 20.915 58.646 20.635 58.482 20.351C58.318 20.064 57.889 19.639 57.799 19.436C57.706 19.232 57.566 18.906 57.5 18.736C57.437 18.57 57.277 18.227 57.176 18.104C57.073 17.98 56.934 17.874 56.828 17.757C56.72 17.64 56.631 17.252 56.521 17.083C56.466 16.996 56.341 16.823 56.276 16.693C56.211 16.564 56.216 16.413 56.154 16.265C56.092 16.115 55.908 15.898 55.867 15.755C55.827 15.611 55.766 14.65 55.785 13.917C55.805 13.18 55.788 12.531 55.867 12.221C55.943 11.925 56.092 11.649 56.154 11.341C56.215 11.036 56.603 10.035 56.706 9.56599C56.806 9.09599 57.052 8.21599 57.176 7.90899C57.297 7.60299 57.625 6.78699 57.789 6.51999C57.951 6.25399 58.565 5.33599 58.809 5.02999C59.053 4.72299 60.178 3.59999 60.444 3.39499C61.1752 2.83936 61.9246 2.30807 62.691 1.80199C62.879 1.68399 63.182 1.67899 63.182 1.67899L63.447 1.41199C63.447 1.41199 63.591 1.24999 63.732 1.14699C63.876 1.04699 64.223 1.04699 64.223 1.04699C64.223 1.04699 64.62 0.734994 65.039 0.819994C65.224 0.859994 65.347 0.534994 65.511 0.494994C65.673 0.452994 66.265 0.372994 66.347 0.452994C66.43 0.534994 66.532 0.635994 66.859 0.698994C67.186 0.758994 67.469 0.682994 67.595 0.718994C67.763 0.764994 67.941 0.983994 68.065 1.02299C68.185 1.06599 69.677 2.43999 69.881 2.78099C69.951 2.90099 69.971 3.12399 70.006 3.19099C70.066 3.30799 70.323 3.46599 70.412 3.84399C70.482 4.14399 70.783 4.23599 70.822 4.66199C70.842 4.91999 71.322 5.13399 71.455 5.66199C71.488 5.78899 71.552 6.30899 71.592 6.38799C71.633 6.47099 71.742 6.49799 71.802 6.68299C71.862 6.86799 71.904 7.13499 71.885 7.35699C71.862 7.58299 72.271 8.42099 72.231 8.93099C72.1943 9.42301 72.1054 9.90973 71.966 10.383C71.842 10.769 71.926 11.503 71.842 11.813C71.762 12.117 71.537 12.853 71.495 13.079C71.455 13.304 70.821 14.855 70.72 15.019C70.617 15.182 70.258 15.882 70.095 16.086C69.932 16.291 68.673 18.043 68.45 18.272C68.224 18.495 67.662 18.916 67.553 19.085C67.403 19.315 67.283 19.586 67.125 19.841C66.873 20.241 66.535 19.944 66.368 20.227C66.141 20.614 65.708 20.717 65.633 20.943C65.519 21.293 65.229 21.594 65.102 21.699C64.799 21.951 64.157 22.137 63.836 22.148ZM27.145 75.966C27.145 75.966 21.77 77.78 19.627 78.541C17.592 79.265 15.367 80.051 13.865 80.666C12.047 81.406 8.82999 82.717 8.06499 82.984C6.86799 83.405 6.35899 83.154 6.03099 82.444C5.70399 81.737 4.93099 80.254 4.49499 78.512C4.05999 76.769 3.90199 75.324 3.87799 74.786C3.85199 74.247 4.29699 73.289 4.95299 72.93C5.61099 72.57 7.16999 71.616 8.42399 70.894C10.818 69.519 19.071 65.116 23.986 62.577C29.191 59.882 37.4 55.905 41.811 53.725C46.226 51.547 53.471 48.115 54.344 47.734C55.214 47.352 56.14 46.916 56.576 46.916C57.011 46.916 56.849 47.134 56.849 47.298C56.849 47.462 56.699 47.53 56.645 47.855C56.589 48.182 56.629 48.551 56.521 48.88C56.411 49.204 56.126 49.517 56.073 49.734C56.017 49.952 55.975 50.731 55.758 51.002C55.541 51.274 54.765 52.786 54.6 53.494C54.438 54.202 54.07 55.361 53.907 55.632C53.744 55.905 53.226 56.926 53.17 57.254C53.118 57.581 52.763 58.357 52.654 58.684C52.544 59.011 51.892 60.224 51.784 60.44C51.673 60.659 51.237 62.116 51.127 62.333C51.019 62.553 50.583 63.204 50.583 63.204L50.365 64.131C50.365 64.131 49.767 65.004 49.767 65.167C49.767 65.332 49.331 66.803 49.114 67.13C48.895 67.454 47.859 69.796 47.642 70.614C47.423 71.43 47.041 72.63 46.933 72.902C46.825 73.173 46.226 74.154 46.118 74.482C46.008 74.809 45.518 76.442 45.354 76.769C45.191 77.097 44.754 78.023 44.754 78.349C44.754 78.677 44.428 79.386 44.154 79.982C43.883 80.582 43.556 81.618 43.393 82C43.229 82.38 43.01 82.647 42.955 82.866C42.901 83.083 42.849 83.688 42.793 83.852C42.7417 83.9987 42.6867 84.1441 42.628 84.288C42.358 84.418 27.701 90.715 25.633 91.696C23.561 92.676 8.69199 99.723 7.76599 100.16C6.84099 100.596 5.60599 101.544 4.71499 100.94C3.53699 100.137 2.41899 98.465 1.66199 96.98C1.03199 95.743 0.345987 93.676 0.244987 92.187C0.120987 90.311 0.904987 89.966 3.65599 88.37C5.00599 87.588 15.706 81.947 19.137 80.17C20.111 79.669 27.145 75.966 27.145 75.966Z" fill="white"/>
<path fill-rule="evenodd" clip-rule="evenodd" d="M108.952 86.796H112.168L108.624 100.706H104.347L102.082 91.816H102.047L99.78 100.706H96.57L100.121 86.796H104.451L106.613 95.845H106.645L108.953 86.795L108.952 86.796ZM116.724 90.533C116.264 92.333 120.137 94.09 119.449 97.339C119.049 99.237 117.836 100.96 114.029 100.953C112.836 100.95 111.341 100.626 110.309 100.265L111.085 97.033C111.947 97.519 112.922 97.851 113.951 97.851C114.554 97.851 115.613 97.794 115.923 96.681C116.343 95.191 112.483 93.395 113.101 90.156C113.417 88.508 115.113 86.551 118.378 86.551C119.297 86.551 120.542 86.711 121.682 87.351C121.667 87.488 120.968 90.24 120.968 90.24C120.266 89.801 119.629 89.506 118.545 89.53C117.979 89.543 116.915 89.801 116.724 90.533ZM79.535 90.533C79.073 92.376 82.95 94.09 82.261 97.339C81.861 99.237 80.65 100.96 76.837 100.953C75.65 100.95 74.15 100.626 73.121 100.265L73.9 97.033C74.757 97.519 75.737 97.851 76.76 97.851C77.362 97.851 78.421 97.794 78.734 96.681C79.15 95.191 75.294 93.395 75.912 90.156C76.225 88.508 77.925 86.551 81.19 86.551C82.106 86.551 83.478 86.679 84.693 87.455C84.677 87.591 83.78 90.24 83.78 90.24C83.076 89.801 82.439 89.506 81.356 89.53C80.791 89.543 79.719 89.801 79.535 90.533ZM173.814 95.844L176.127 86.799H179.341L175.794 100.698H171.511L169.256 91.816H169.224L166.954 100.698H163.742L167.291 86.799H171.621L173.781 95.844H173.814ZM132.946 89.778L132.327 92.217H136.759L136 95.197H131.564L130.16 100.698H126.49L130.05 86.795H139.008L138.239 89.778H132.946ZM190.98 86.797L190.214 89.772H186.887L184.097 100.694H180.428L183.219 89.772H179.875L180.638 86.797H190.98ZM192.267 86.797H195.936L192.386 100.705H188.719L192.267 86.797ZM204.225 95.193H199.641L198.997 97.713H204.797L204.03 100.705H194.565L198.117 86.797H207.586L206.822 89.772H201.024L200.4 92.213H204.983L204.225 95.193ZM227.703 95.193H223.01L222.367 97.71H228.164L227.401 100.7H217.936L221.492 86.797H230.953L230.19 89.772H224.394L223.769 92.213L228.466 92.211L227.703 95.193ZM235.328 90.531C234.825 92.299 238.742 94.089 238.053 97.337C237.655 99.238 236.44 100.959 232.629 100.952C231.441 100.95 229.942 100.626 228.914 100.265L229.694 97.033C230.551 97.519 231.528 97.849 232.551 97.849C233.16 97.849 234.213 97.795 234.527 96.681C234.945 95.188 231.092 93.395 231.704 90.154C232.018 88.505 233.719 86.554 236.982 86.554C237.902 86.554 239.146 86.71 240.289 87.35C240.273 87.49 239.568 90.237 239.568 90.237C238.87 89.803 238.232 89.504 237.148 89.53C236.581 89.542 235.533 89.808 235.328 90.531ZM146.282 94.591C146.326 94.886 147.605 100.705 147.605 100.705H143.661L142.387 93.001L143.584 92.999H143.684C145.294 93.026 146.147 92.299 146.427 91.199C146.802 89.722 145.671 89.722 145.143 89.722H143.343L140.542 100.705H137.037L140.583 86.797H146.802C149.871 86.804 150.682 88.285 149.976 91.036C149.58 92.601 148.139 94.251 146.282 94.591ZM215.141 94.586C215.185 94.88 216.465 100.7 216.465 100.7H212.522L211.245 92.994H212.542C214.156 93.019 215.003 92.293 215.284 91.195C215.66 89.715 214.525 89.715 214.001 89.715H212.202L209.394 100.704H205.892L209.437 86.797H215.654C218.727 86.797 219.539 88.277 218.836 91.029C218.438 92.594 216.996 94.245 215.141 94.586ZM139.817 82.761H130.357L133.905 68.863L143.366 68.865L142.607 71.846H136.81L136.186 74.286H140.913L140.155 77.266H135.426L134.782 79.785H140.579L139.817 82.761ZM115.282 82.762H105.818L109.368 68.865H118.829L118.069 71.843H112.269L111.646 74.283H116.329L115.569 77.263H110.889L110.245 79.785H116.042L115.282 82.762ZM147.742 82.991C143.559 82.991 141.369 80.404 142.557 75.776C143.749 71.173 147.271 68.589 151.452 68.589C152.476 68.589 153.864 68.749 154.724 69.069L153.929 72.191C153.089 71.88 152.236 71.629 151.285 71.629C148.426 71.629 146.735 73.939 146.259 75.799C145.702 77.947 146.265 79.941 148.522 79.941C149.97 79.941 151.082 79.673 152.162 79.378L151.28 82.596C150.242 82.775 148.409 82.991 147.741 82.991H147.742ZM156.765 82.762H153.099L156.646 68.862H160.314L156.765 82.762ZM95.094 72.826L92.556 82.762H89.454L93.003 68.869H98.163L97.929 77.599H97.961L102.288 68.869H107.157L103.615 82.762H100.511L103.045 72.803H103.011L98.057 82.765L94.933 82.761L95.129 72.826H95.094ZM162.169 82.761H158.953L162.521 68.863L166.837 68.865L168.998 77.909H169.03L171.341 68.865H174.551L171.006 82.762H166.728L164.471 73.888H164.433L162.169 82.761ZM179.115 72.611C178.645 74.445 182.53 76.166 181.841 79.421C181.437 81.316 180.229 83.039 176.419 83.032C175.229 83.029 173.728 82.705 172.699 82.344L173.479 79.113C174.336 79.598 175.314 79.93 176.339 79.93C176.944 79.93 178.001 79.877 178.315 78.76C178.733 77.27 174.875 75.474 175.489 72.234C175.805 70.588 177.503 68.632 180.771 68.632C181.687 68.632 182.935 68.788 184.072 69.429C184.056 69.569 183.357 72.316 183.357 72.316C182.657 71.88 182.017 71.586 180.934 71.61C180.371 71.622 179.304 71.879 179.115 72.611ZM90.375 86.796H94.778C95.051 91.353 95.61 96.083 96.072 100.703H92.181L91.945 96.687H87.647L85.239 100.703H81.219C84.373 96.168 87.359 91.461 90.375 86.796ZM89.265 93.774L91.712 89.788H91.748L91.988 93.774H89.265ZM158.985 86.575C163.125 86.575 165.406 89.269 164.048 94.164C162.753 98.679 159.21 100.975 155.316 100.975C151.171 100.975 149.004 98.389 150.186 93.763C151.361 89.162 154.847 86.575 158.985 86.575ZM160.471 93.763C159.87 95.975 158.177 97.93 156.087 97.93C153.873 97.93 153.3 95.93 153.847 93.787C154.392 91.637 155.994 89.617 158.212 89.617C160.344 89.617 160.986 91.527 160.471 93.763ZM130.744 75.802C129.71 79.845 127.044 82.761 123.027 82.764H117.213L120.759 68.863H127.346C129.059 68.863 132.243 69.923 130.744 75.802ZM127.076 75.802C126.551 77.842 125.099 79.783 123.072 79.783H121.486L123.511 71.839H125.344C127.298 71.839 127.737 73.219 127.076 75.802Z" fill="white"/>
</svg>
