<svg width="227" height="70" viewBox="0 0 227 70" fill="none" xmlns="http://www.w3.org/2000/svg">
<path d="M93.7049 18.7134C94.8135 18.7134 99.5436 18.396 105.21 22.6199C105.456 22.7664 105.53 23.157 105.358 23.4012L102.598 27.2344C102.352 27.5518 102.056 27.5518 101.736 27.3809C101.268 26.9903 100.406 26.3555 99.3711 25.8916C97.7205 25.037 95.5772 24.4022 93.7049 24.4022C91.808 24.4022 88.8271 25.037 88.8271 27.918C88.8271 30.2619 90.9457 31.1165 97.351 32.6791C101.539 33.7778 106.417 35.731 106.417 42.1278C106.417 47.9875 101.539 51.6499 94.6657 51.6499C90.5762 51.6499 84.9593 50.0873 81.4118 46.5714C81.1654 46.3273 81.1654 46.0343 81.4118 45.7902L84.4912 42.2011C84.7376 41.9569 85.1317 41.8837 85.3535 42.1278C86.536 43.2265 90.0096 45.9611 94.6657 45.9611C100.258 45.9611 100.036 42.5917 100.036 42.1278C100.036 41.0291 99.2479 39.5398 96.4887 38.8562C93.7295 38.0749 86.7823 36.8297 84.1956 33.7778C82.6189 31.8978 82.3725 29.8713 82.3725 28.3087C82.5943 24.7929 84.8854 18.7134 93.7049 18.7134Z" fill="white"/>
<path d="M121.22 46.2791C117.746 46.2791 114.765 43.3004 114.765 39.0033C114.765 36.4152 116.416 31.8251 121.146 31.8251C125.876 31.8251 127.601 35.5851 127.601 39.0033C127.675 42.3726 125.778 46.2791 121.22 46.2791ZM122.55 26.2828C117.574 26.2828 114.913 29.8719 114.913 29.8719V27.3815C114.913 27.0641 114.667 26.7467 114.273 26.7467H109.149C108.828 26.7467 108.508 26.9909 108.508 27.3815V57.7788C108.508 58.0962 108.754 58.4136 109.149 58.4136H114.273C114.593 58.4136 114.913 58.1694 114.913 57.7788V48.4032C114.913 48.4032 117.426 51.6749 122.797 51.6749C127.133 51.6749 133.981 48.2323 133.981 39.1009C134.055 29.9696 127.527 26.2828 122.55 26.2828Z" fill="white"/>
<path d="M148.921 46.2792C145.619 46.2792 142.072 43.5447 142.072 39.0034C142.072 34.4621 145.299 31.8253 148.921 31.8253C151.68 31.8253 155.695 34.0959 155.695 39.0034C155.622 43.9353 152.148 46.2792 148.921 46.2792ZM148.822 26.283C140.791 26.283 135.815 32.8507 135.815 39.0278C135.815 45.8153 141.087 51.7727 148.896 51.7727C156.705 51.7727 161.978 45.6688 161.978 39.0278C162.002 32.4601 156.878 26.283 148.822 26.283Z" fill="white"/>
<path d="M178.091 31.648V27.3509C178.091 27.0335 177.845 26.7161 177.451 26.7161H171.612V20.8564C171.612 20.539 171.366 20.2216 170.972 20.2216H165.921C165.601 20.2216 165.281 20.4657 165.281 20.8564V26.7161H162.842C162.522 26.7161 162.201 26.9602 162.201 27.3509V31.648C162.201 31.9654 162.448 32.2828 162.842 32.2828H165.281V44.4661C165.281 47.2006 166.537 51.571 172.056 51.571C174.568 51.571 176.786 50.7164 177.574 50.3258C177.82 50.2526 177.894 50.0084 177.894 49.7887V45.5648C177.894 45.1741 177.5 44.93 177.18 45.1741C176.638 45.5648 175.677 45.9554 174.273 45.9554C171.661 45.9554 171.514 44.1487 171.514 42.9035V32.2828H177.352C177.771 32.2828 178.091 32.0386 178.091 31.648Z" fill="white"/>
<path d="M187.662 19.963C187.662 22.0628 185.938 23.7963 183.795 23.7963C181.651 23.7963 179.927 22.0872 179.927 19.963C179.927 17.8633 181.651 16.1298 183.795 16.1298C185.938 16.1298 187.662 17.8633 187.662 19.963Z" fill="white"/>
<path d="M186.295 51.2404H181.245C180.924 51.2404 180.604 50.9962 180.604 50.6056V27.4109C180.604 27.0935 180.851 26.7761 181.245 26.7761H186.295C186.615 26.7761 186.936 27.0203 186.936 27.4109V50.6056C186.911 50.923 186.591 51.2404 186.295 51.2404Z" fill="white"/>
<path d="M192.425 32.2828H189.986C189.666 32.2828 189.345 32.0387 189.345 31.648V27.3509C189.345 27.0335 189.592 26.7161 189.986 26.7161H192.425V25.1535C192.425 24.1281 192.573 17.4871 200.062 17.4871C203.757 17.4871 204.94 18.2684 204.94 18.2684V22.712C204.94 23.1759 204.792 23.4933 204.299 23.3468C203.831 23.2003 202.402 22.8096 201.294 22.8096C200.185 22.8096 198.608 23.4444 198.608 25.4709V26.7161H207.748C207.995 26.7161 208.216 26.8626 208.29 27.1067L214.671 43.5139L220.436 27.18C220.509 26.9358 220.756 26.7893 220.978 26.7893H226.57C226.816 26.7893 227.038 27.0335 226.89 27.2532C225.56 30.6226 218.144 49.7643 217.11 52.1814C216.075 54.8427 214.277 58.505 209.152 58.505C206.147 58.505 204.275 57.4796 203.486 57.0157C203.24 56.8692 203.166 56.5518 203.24 56.2344L205.063 52.3279C205.137 52.1814 205.383 52.0837 205.457 52.1814C205.999 52.4988 207.182 53.1092 208.537 53.1092C210.581 53.1092 211.444 50.6921 211.444 50.6921L203.634 32.1852H198.51V50.5456C198.51 50.863 198.264 51.1804 197.869 51.1804H192.819C192.499 51.1804 192.179 50.9362 192.179 50.5456L192.425 32.2828Z" fill="white"/>
<path d="M35.3215 0C15.816 0 0 15.6747 0 34.9883C0 54.3019 15.816 69.9941 35.3215 69.9941C54.8269 69.9941 70.6252 54.3194 70.6252 34.9883C70.6252 15.6571 54.8092 0 35.3215 0ZM51.4805 50.5341C51.0429 51.249 50.2684 51.6416 49.4938 51.6416C49.08 51.6416 48.6779 51.5302 48.2995 51.3017C34.3932 43.0161 17.915 47.8152 17.7435 47.8503C16.5137 48.2254 15.2248 47.5339 14.8464 46.3151C14.468 45.0963 15.1657 43.8189 16.3777 43.4438C17.1345 43.2212 34.9549 37.9885 50.6823 47.3464C51.782 48.0378 52.1427 49.4442 51.4805 50.5341ZM55.8735 40.8421C55.365 41.7211 54.4367 42.2133 53.4907 42.2133C53.0177 42.2133 52.5624 42.102 52.1308 41.8559C34.6652 31.9002 17.0518 37.6955 16.8803 37.7482C15.4435 38.2346 13.8885 37.4845 13.3978 36.0606C12.9071 34.6367 13.6639 33.0956 15.1006 32.6092C15.9165 32.328 35.2505 25.9702 54.8506 37.1446C56.175 37.8771 56.6303 39.5471 55.8735 40.8421ZM57.8187 31.5018C57.2866 31.5018 56.7603 31.3728 56.246 31.1267C36.1138 20.6437 15.414 26.9253 15.207 26.9839C13.4274 27.5465 11.5354 26.5738 10.9678 24.81C10.4002 23.0462 11.3816 21.1711 13.1613 20.6086C14.1073 20.3097 36.7523 13.448 59.3619 25.2026C61.0055 26.064 61.65 28.0914 60.7809 29.7204C60.2251 30.8455 59.0485 31.5018 57.8187 31.5018Z" fill="white"/>
</svg>
