<svg width="231" height="76" viewBox="0 0 231 76" fill="none" xmlns="http://www.w3.org/2000/svg">
<path d="M56.8519 26.8593H29.9173V34.8617H49.021C48.0739 46.079 38.7646 50.8666 29.9635 50.8666C18.7138 50.8666 8.87319 42.0084 8.87319 29.5653C8.87319 17.4461 18.2287 8.1253 29.9866 8.1253C39.0418 8.1253 44.3779 13.9074 44.3779 13.9074L49.9681 8.10216C49.9681 8.10216 42.784 0.0997314 29.6863 0.0997314C13.0081 0.0997314 0.118286 14.1849 0.118286 29.4266C0.118286 44.3444 12.2458 58.8922 30.1252 58.8922C45.8332 58.8922 57.337 48.1143 57.337 32.1789C57.337 28.8021 56.8519 26.8593 56.8519 26.8593Z" fill="white"/>
<path d="M78.9124 21.0772C67.8706 21.0772 59.9473 29.7272 59.9473 39.8112C59.9473 50.0571 67.6165 58.8459 79.051 58.8459C89.3767 58.8459 97.8544 50.936 97.8544 40.0194C97.8313 27.53 87.9907 21.0772 78.9124 21.0772ZM79.0279 28.5014C84.4564 28.5014 89.6077 32.8958 89.6077 39.9963C89.6077 46.9348 84.4795 51.468 79.0048 51.468C72.9757 51.468 68.2402 46.6341 68.2402 39.95C68.2171 33.3815 72.9064 28.5014 79.0279 28.5014Z" fill="white"/>
<path d="M120.169 21.0772C109.127 21.0772 101.204 29.7272 101.204 39.8112C101.204 50.0571 108.873 58.8459 120.308 58.8459C130.633 58.8459 139.111 50.936 139.111 40.0194C139.088 27.53 129.247 21.0772 120.169 21.0772ZM120.261 28.5014C125.69 28.5014 130.841 32.8958 130.841 39.9963C130.841 46.9348 125.713 51.468 120.238 51.468C114.209 51.468 109.474 46.6341 109.474 39.95C109.474 33.3815 114.163 28.5014 120.261 28.5014Z" fill="white"/>
<path d="M160.617 21.1003C150.476 21.1003 142.507 30.0048 142.507 39.9731C142.507 51.3523 151.747 58.8922 160.455 58.8922C165.838 58.8922 168.702 56.7644 170.804 54.3128V58.0364C170.804 64.5586 166.854 68.4673 160.894 68.4673C155.142 68.4673 152.232 64.1655 151.239 61.737L143.985 64.7668C146.549 70.202 151.747 75.8916 160.964 75.8916C171.058 75.8916 178.728 69.5313 178.728 56.1862V22.2336H170.827V25.4254C168.356 22.8118 165.029 21.1003 160.617 21.1003ZM161.356 28.5014C166.323 28.5014 171.428 32.7571 171.428 40.0194C171.428 47.3974 166.323 51.468 161.241 51.468C155.835 51.468 150.8 47.0736 150.8 40.0888C150.8 32.8265 156.043 28.5014 161.356 28.5014Z" fill="white"/>
<path d="M213.886 21.0541C204.322 21.0541 196.283 28.6633 196.283 39.9269C196.283 51.8149 205.246 58.8922 214.81 58.8922C222.802 58.8922 227.699 54.5209 230.61 50.6122L224.096 46.2641C222.41 48.9007 219.568 51.468 214.856 51.468C209.543 51.468 207.117 48.5538 205.593 45.7321L230.887 35.2318L229.571 32.1557C227.122 26.0961 221.416 21.0541 213.886 21.0541ZM214.209 28.3164C217.651 28.3164 220.146 30.1436 221.185 32.3408L204.299 39.4181C203.56 33.9597 208.757 28.3164 214.209 28.3164Z" fill="white"/>
<path d="M184.225 57.7589H192.541V2.06567H184.225V57.7589Z" fill="white"/>
</svg>
