<svg width="153" height="101" viewBox="0 0 153 101" fill="none" xmlns="http://www.w3.org/2000/svg">
<path fill-rule="evenodd" clip-rule="evenodd" d="M60.3206 37.6226C63.3847 37.6421 68.6736 35.9651 69.6885 38.5195C70.9375 41.6394 66.8976 43.2969 65.5315 44.7593C62.3308 48.1912 60.5744 52.8905 54.3682 53.378C49.0597 67.125 43.9855 81.1645 39.0479 95.8865C38.3648 97.9339 37.8769 100.839 35.9253 100.937C34.1883 101.034 33.3686 98.9868 32.3538 97.9729C30.5583 96.1789 27.5918 94.7945 27.1429 92.6301C26.8502 91.2066 27.6113 89.1202 28.0407 87.5798C30.9096 77.3231 34.9104 66.6765 38.3062 57.1219C32.4513 58.0968 26.011 59.7933 19.8633 60.9827C16.2333 70.2839 12.6618 80.0335 9.14886 89.9587C8.19256 92.6301 6.72884 97.8364 3.05977 96.6469C-0.179937 95.594 2.70848 89.4517 3.2159 88.0282C6.29948 79.1171 9.22693 70.5374 12.5837 62.1722C11.5103 61.7042 10.2613 61.5482 9.30499 60.9827C7.60707 59.9493 6.43609 57.2389 4.4064 55.9324C2.70848 54.8404 -0.531231 54.314 0.093291 51.4671C0.366519 50.2386 2.82558 49.6146 4.11365 49.2442C9.05128 47.7622 13.9108 46.5922 18.8485 45.3833C23.5909 33.6057 28.6066 20.7557 33.5833 8.66613C34.3054 6.93069 34.8714 4.88326 35.8082 3.61581C36.6278 2.52385 39.2625 0.398428 41.1556 1.68538C42.5803 2.66035 41.5655 5.95572 40.9995 7.34017C36.0814 19.4102 31.2023 31.3633 26.5769 43.4529C32.6075 42.2439 38.599 41.0155 44.7271 39.8845C48.0644 31.3633 52.4946 21.0092 56.3393 11.942C57.4517 9.3096 58.6422 4.41528 60.8086 3.32332C61.96 2.73834 64.38 2.28986 66.0194 1.68538C67.6002 1.1004 69.4543 0.183935 71.0741 0.0474402C76.6168 -0.420543 71.7962 8.33464 71.0741 10.1481C67.366 19.4882 63.9897 28.5359 60.3206 37.6226Z" fill="white"/>
<path fill-rule="evenodd" clip-rule="evenodd" d="M59.2863 78.7856C59.4034 78.8246 59.579 78.7856 59.579 78.9416C60.8281 78.7466 61.6282 78.1226 62.2528 77.3036C61.8429 76.3287 61.7844 75.0027 61.0623 74.3397C60.3792 75.6072 58.5251 77.0306 59.2863 78.7856ZM62.5455 64.9606C63.4042 64.7656 64.5557 63.6151 64.4776 61.9967C62.8773 60.2417 61.6478 63.2251 62.5455 64.9606ZM64.341 70.4594C64.5752 71.8243 65.1997 72.7603 65.3754 74.1837C66.3512 73.5793 69.9617 70.9079 70.5862 73.8912C71.1327 76.5236 68.576 78.3761 67.4636 80.131C67.932 81.7105 69.3372 83.8164 68.2052 85.6298C66.3122 86.5853 64.8094 85.1033 64.4776 83.5434C62.9749 84.4599 61.8624 85.6493 60.0084 85.9223C55.3245 86.6243 52.7873 83.6214 52.7288 79.6825C52.6312 74.1057 57.1395 71.5513 59.4229 68.3924C58.6618 65.9355 57.9982 64.3366 58.2324 62.3087C59.013 55.7569 69.9227 55.5619 68.9469 63.0496C68.5175 66.306 65.7462 67.827 64.341 70.4594Z" fill="white"/>
<path fill-rule="evenodd" clip-rule="evenodd" d="M133.8 26.1765C124.959 44.1159 116.606 64.0636 108.819 84.1284C107.882 86.5658 107.004 91.6941 104.662 91.8501C102.769 91.9866 102.047 89.6077 100.934 88.2817C99.2166 86.1953 97.0503 84.7914 96.1721 82.3345C94.8645 78.7271 95.2158 73.7548 95.4305 69.1139C96.0355 56.0104 97.792 42.1659 98.5531 29.7254C91.8395 49.7121 85.5747 69.8354 79.5052 90.6607C78.744 93.2736 77.6511 97.5634 74.1577 96.6079C70.6643 95.6525 74.1187 87.0533 74.6066 85.3179C81.73 59.9103 88.9511 35.6922 97.8115 11.747C98.5141 9.8556 99.1971 7.59368 100.036 6.54072C101.461 4.76628 104.428 4.3178 107.179 3.12834C108.858 2.38737 113.522 -0.0110454 115.357 1.64639C116.508 2.67986 115.884 7.20369 115.649 9.97259C113.951 29.9789 109.775 46.3778 109.404 67.9245C116.625 48.4837 125.974 29.4524 134.834 10.5576C136.102 7.82767 137.527 4.68828 139.596 3.57682C140.338 3.18684 141.684 3.03084 142.719 2.67986C145.139 1.86089 147.832 0.222946 150.154 0.144949C154.233 0.00845377 152.906 4.59079 152.242 7.41818C145.412 36.0041 139.889 65.5846 134.092 95.399C133.663 97.6219 133.526 100.566 132.004 100.898C129.408 101.483 128.159 98.3824 126.657 97.0369C125.037 95.594 122.129 94.4435 121.758 92.4351C121.348 90.3097 122.597 85.9223 122.948 83.8164C126.149 64.2976 129.994 45.1103 133.8 26.1765Z" fill="white"/>
</svg>
