<svg width="172" height="32" viewBox="0 0 172 32" fill="none" xmlns="http://www.w3.org/2000/svg">
<g clip-path="url(#clip0_65_117)">
<path d="M63.1734 0.0654297H70.3836V29.1603H89.2738V30.8903H63.1734V0.0654297Z" fill="white"/>
<path d="M100.651 0.0654297H107.816V30.8903H100.639V0.0654297H100.651Z" fill="white"/>
<path d="M145.731 32C130.918 32 119.417 25.3954 119.417 15.9946C119.417 6.83305 130.918 0 145.731 0C160.545 0 172 6.83305 172 16.0054C172 25.3954 160.545 32 145.731 32ZM164.251 16.0054C164.251 7.62734 156.827 1.73002 145.731 1.73002C134.635 1.73002 127.211 7.62734 127.211 16.0054C127.211 24.4271 134.635 30.2809 145.731 30.2809C156.827 30.2809 164.251 24.4271 164.251 16.0054Z" fill="white"/>
<path d="M43.3173 22.1095C40.6106 27.1146 34.4562 30.27 26.3138 30.27C15.2178 30.27 7.79419 24.4162 7.79419 15.9946C7.79419 7.61646 15.2178 1.71914 26.3138 1.71914C34.4449 1.71914 40.5882 4.89629 43.306 9.87963H50.7296C46.9111 3.96056 37.5783 0 26.3138 0C11.5004 0 0 6.83305 0 16.0054C0 25.4063 11.5004 32.0109 26.3138 32.0109C37.6457 32.0109 47.0122 28.1482 50.7858 22.1204H43.3173V22.1095Z" fill="white"/>
</g>
<defs>
<clipPath id="clip0_65_117">
<rect width="172" height="32" fill="white"/>
</clipPath>
</defs>
</svg>
