<svg width="124" height="37" viewBox="0 0 124 37" fill="none" xmlns="http://www.w3.org/2000/svg">
<g clip-path="url(#clip0_65_136)">
<path d="M105.694 0.00732422H80.8505C79.0559 0.00732422 77.2829 0.615306 75.8559 1.70099C74.8829 2.39582 74.0613 3.30779 73.4775 4.35005L73.4559 4.41519L73.4342 4.48033L69.9748 10.8641C69.9748 10.8641 65.9748 3.02552 64.8288 2.07012C63.337 0.767301 61.4343 0.0724657 59.4667 0.0724657C58.2559 0.0724657 57.0234 0.354743 55.9207 0.897584C53.7802 1.93984 52.591 3.82892 51.5964 6.04371L49.0018 10.8858L45.8451 4.67575C45.0234 3.0038 43.6397 1.63585 41.9532 0.854156C40.8505 0.311315 39.618 0.0290392 38.3856 0.0290392H18.2991C16.937 0.0290392 15.5748 0.376457 14.3856 1.02787C11.7478 2.46096 10.1045 5.24031 10.1045 8.2585V10.4081H8.20183C3.68291 10.4081 0.00723267 14.0995 0.00723267 18.6376C0.00723267 23.1758 3.68291 26.8671 8.20183 26.8671H10.1045V28.7779C10.1045 33.316 13.7802 37.0073 18.2991 37.0073C22.818 37.0073 26.4937 33.316 26.4937 28.7779V26.8671H33.7802C35.3586 26.8671 36.8288 26.4111 38.0829 25.6511L41.3045 31.9915C41.4559 32.3606 41.6505 32.708 41.8667 33.0337C43.337 35.4657 46.018 36.9639 48.8721 36.9639C50.0829 36.9639 51.3153 36.6816 52.418 36.1388C54.4289 35.1617 56.1586 33.5331 57.0451 31.4486L59.3802 26.2157L62.2775 31.9698C62.4289 32.3389 62.6234 32.6863 62.8397 33.012C64.3099 35.4657 66.991 36.9639 69.8451 36.9639C71.0559 36.9639 72.2883 36.6816 73.391 36.1605C75.2721 35.2485 76.7207 33.6634 77.4775 31.7309C78.7099 34.7274 81.6505 36.8553 85.0667 36.8553H105.694C110.213 36.8553 113.888 33.316 113.888 28.7779V26.8671H115.791C120.31 26.8671 123.986 23.1758 123.986 18.6376C123.986 14.0995 120.31 10.4081 115.791 10.4081H113.91V8.2585C113.91 5.24031 112.267 2.46096 109.629 1.02787C108.418 0.354743 107.077 0.00732422 105.694 0.00732422ZM87.6397 25.9117H103.013V21.3301H87.6397V25.9117ZM105.694 5.52258C106.169 5.52258 106.602 5.63115 106.969 5.84829C107.813 6.30427 108.375 7.19453 108.375 8.23678V15.9234H115.791C117.283 15.9234 118.494 17.1394 118.494 18.6376C118.494 20.1358 117.283 21.3518 115.791 21.3518H108.375V28.6476C108.375 30.1458 107.164 31.3618 105.672 31.3618C105.369 31.3618 85.0451 31.3618 85.0451 31.3618C83.5532 31.3618 82.3424 30.1458 82.3424 28.6476V18.529C82.4505 17.0742 83.6397 15.9234 85.0667 15.9234H102.991V10.951H82.3207L72.4829 29.2556C72.3316 30.059 71.8126 30.7972 71.0126 31.1881C70.6451 31.3618 70.2343 31.4486 69.8451 31.4486C68.9153 31.4486 68.0072 30.9492 67.5099 30.1024C67.4018 29.9504 67.3153 29.7984 67.2505 29.6247L59.4883 14.3383L51.6397 29.299C51.2937 30.1024 50.7964 30.8189 49.9964 31.1881C49.6288 31.3618 49.218 31.4486 48.8288 31.4486C47.8991 31.4486 46.991 30.9492 46.4937 30.1024C46.3856 29.9504 46.2991 29.7984 46.2343 29.6247L36.764 10.951H20.937V15.9234H33.737C35.2289 15.9234 36.4397 17.1394 36.4397 18.6376C36.4397 20.1358 35.2289 21.3518 33.737 21.3518H20.937V28.7996C20.937 30.2978 19.7261 31.5138 18.2343 31.5138C16.7424 31.5138 15.5316 30.2978 15.5316 28.7996V21.3301H8.11534C6.62345 21.3301 5.41264 20.1141 5.41264 18.6159C5.41264 17.1177 6.62345 15.9017 8.11534 15.9017H15.5316V8.21507C15.5316 7.19453 16.0937 6.30427 16.937 5.82657C17.3261 5.60944 17.7586 5.50087 18.2126 5.50087H38.2991C38.7316 5.50087 39.1424 5.60944 39.5099 5.78315C40.0721 6.04371 40.5478 6.47798 40.8505 7.08596L48.7856 22.7415L56.8288 7.82423C57.2397 6.99911 57.4559 6.26085 58.3207 5.84829C58.6883 5.67458 59.0991 5.58772 59.4883 5.58772C60.1586 5.58772 60.8072 5.84829 61.3045 6.28256C61.8018 6.6734 62.018 6.93397 62.364 7.58538L69.8451 22.7849L78.2775 7.08596C78.4937 6.69512 78.7964 6.39113 79.1424 6.15228C79.618 5.76143 80.2018 5.52258 80.8721 5.52258H105.694Z" fill="white"/>
</g>
<defs>
<clipPath id="clip0_65_136">
<rect width="124" height="37" fill="white"/>
</clipPath>
</defs>
</svg>
