<svg width="158" height="89" viewBox="0 0 158 89" fill="none" xmlns="http://www.w3.org/2000/svg">
<g clip-path="url(#clip0_65_169)">
<path d="M0 19.6278C4.51994 19.3185 27.2326 17.7156 27.2326 16.0847C27.2326 14.3131 15.848 13.2727 15.848 13.2727L18.447 10.067C18.447 10.067 35.086 11.2199 35.086 16.1972C35.086 20.0215 22.4867 21.5681 22.4867 21.5681C22.4867 21.5681 35.199 23.7052 35.199 27.0515C35.199 31.4101 23.1364 32.6755 23.1364 32.6755C23.1364 32.6755 35.5662 34.5033 35.5662 37.9058C35.5662 41.927 22.1759 43.7548 22.1759 43.7548C22.1759 43.7548 35.9052 45.9482 35.9052 48.8727C35.9052 52.5845 23.0234 54.6935 23.0234 54.6935C23.0234 54.6935 36.0747 55.7058 36.0747 59.6989C36.0747 64.0575 24.7749 65.6885 24.1534 65.7728C24.4077 65.8009 25.8766 66.0259 27.7129 66.4196C33.165 67.4319 36.781 69.2035 36.781 71.2844V87.7627L36.7245 87.9033C36.6397 88.1283 36.5267 88.3251 36.3572 88.5501H46.3858V0H0V19.6278Z" fill="white"/>
<path d="M26.8654 59.8393C26.8654 57.7865 4.97193 57.5616 0 57.2241V64.226C4.15269 63.9167 26.8654 62.0045 26.8654 59.8393Z" fill="white"/>
<path d="M26.8654 49.2383C26.8654 47.2136 5.42392 46.2857 0 45.8076V53.3719C4.35044 53.0907 26.8654 51.3473 26.8654 49.2383Z" fill="white"/>
<path d="M26.8654 27.0516C26.8654 24.9989 5.22618 23.9865 0 23.5366V31.0166C5.62167 30.651 26.8654 29.1606 26.8654 27.0516Z" fill="white"/>
<path d="M27.0631 38.131C27.0631 36.1626 5.84767 35.8533 0 35.0659V41.8991C4.85893 41.6179 27.0631 40.1838 27.0631 38.131Z" fill="white"/>
<path d="M100.653 72.6904L93.1672 88.7751H94.4102L96.4441 84.304H105.936L107.97 88.7751H109.269L101.783 72.6904H100.653ZM96.9526 83.2073L101.19 73.9558L105.399 83.2073H96.9526Z" fill="white"/>
<path d="M150.26 80.1984C146.446 79.411 145.57 78.3987 145.57 76.7115V76.6834C145.57 75.0243 147.124 73.6745 149.497 73.6745C151.277 73.6464 152.972 74.2932 154.299 75.4742L155.062 74.5462C153.452 73.2527 151.898 72.606 149.553 72.606C146.559 72.606 144.384 74.4338 144.384 76.7958V76.824C144.384 79.2423 145.937 80.5358 149.779 81.3232C153.424 82.0543 154.328 83.0385 154.328 84.7257V84.7538C154.328 86.5816 152.661 87.9314 150.26 87.9314C147.915 87.9314 146.276 87.1721 144.525 85.5412L143.734 86.441C145.655 88.1563 147.632 89 150.203 89C153.282 89 155.514 87.2284 155.514 84.6413V84.6132C155.514 82.2511 153.96 80.9295 150.26 80.1984Z" fill="white"/>
<path d="M132.999 72.7749H127.66V88.7471H132.999C138.028 88.7471 141.53 85.2602 141.53 80.761V80.7329C141.502 76.2337 138.028 72.7749 132.999 72.7749ZM140.259 80.8454C140.259 84.6416 137.434 87.7067 132.971 87.7067H128.818V73.9278H132.971C137.434 73.9278 140.259 77.021 140.259 80.8172V80.8454Z" fill="white"/>
<path d="M92.4327 72.7747L87.376 87.0034L82.6866 72.7466H81.7543L77.0649 87.0034L72.0365 72.7747H70.7087L76.5282 88.8875H77.4886L82.1781 74.9962L86.8958 88.8875H87.828L93.6757 72.7747H92.4327Z" fill="white"/>
<path d="M62.5446 72.6904L55.0585 88.7751H56.3015L58.3354 84.304H67.799L69.833 88.7751H71.1325L63.6464 72.6904H62.5446ZM58.8722 83.2073L63.1096 73.9558L67.3188 83.2073H58.8722Z" fill="white"/>
<path d="M124.1 77.3866V77.3304C124.1 76.2056 123.677 75.137 122.886 74.3496C121.925 73.3935 120.343 72.7749 118.366 72.7749H111.642V88.7471H112.829V82.1389H118.083L123.197 88.7471H124.722L119.411 81.9139C122.123 81.5765 124.1 80.058 124.1 77.3866ZM112.857 81.0703V73.8997H118.338C121.247 73.8997 122.942 75.2214 122.942 77.3866V77.4147C122.942 79.7206 120.965 81.0703 118.253 81.0703H112.857Z" fill="white"/>
<path d="M69.7482 31.8601H80.0029V39.3682H81.2176V23.396H80.0029V30.7916H69.7482V23.396H68.5618V39.3682H69.7482V31.8601Z" fill="white"/>
<path d="M59.1829 39.3682H60.3694V24.4927H65.9628V23.396H53.5895V24.4927H59.1829V39.3682Z" fill="white"/>
<path d="M96.9526 38.2715H86.585V31.8601H95.7944V30.7635H86.585V24.4927H96.8114V23.396H85.3985V39.3682H96.9526V38.2715Z" fill="white"/>
<path d="M146.446 65.7726H150.994V57.0554L158 47.354H152.746L149.582 52.3031C149.101 53.0624 149.045 53.1749 148.819 53.681L144.836 47.354H139.497L146.446 57.196V65.7726Z" fill="white"/>
<path d="M63.2508 61.0485C62.7141 57.0554 62.4881 56.0993 60.4824 47.354H55.8777L60.5671 65.7726H65.3131L67.0928 59.5581C67.7425 57.6178 68.251 55.5932 68.6748 53.5967C69.2398 56.1837 69.2963 56.2962 70.285 59.6987C70.9065 61.7234 71.4432 63.748 72.0082 65.8008H76.7542L81.4436 47.3821H76.8672L75.6524 53.0061C74.8049 56.7461 74.6919 57.3647 74.1269 61.0485C73.5337 57.4772 73.3642 56.9148 72.3472 53.3436C71.754 51.3752 71.189 49.3787 70.6522 47.4102H66.5843L65.0588 53.0905C64.1266 56.6899 63.9571 57.421 63.2508 61.0485Z" fill="white"/>
<path d="M136.53 65.0978C138.819 64.0854 139.581 62.0608 139.581 60.6548C139.581 59.6144 139.214 58.5739 138.564 57.8709C137.547 56.718 136.05 56.493 134.92 56.2962C135.909 56.0993 137.717 55.7057 138.536 53.8497C138.621 53.681 138.875 53.0624 138.875 52.0782C138.903 50.1098 137.604 48.3382 135.683 47.8039C134.553 47.4384 132.801 47.354 130.852 47.354H123.705V65.7726H131.53C133.649 65.7726 135.146 65.6883 136.53 65.0978ZM128.112 50.8128H131.926C132.83 50.8128 134.355 50.869 134.355 52.6687C134.355 54.5809 132.66 54.609 131.587 54.6371H128.112V50.8128ZM128.112 62.4264V57.9553H132.123C133.056 57.9834 134.92 58.0115 134.92 60.233C134.92 62.342 132.914 62.3982 131.361 62.4264H128.112Z" fill="white"/>
<path d="M91.67 65.9416C94.1559 65.9697 96.5571 65.0699 98.3934 63.4389C99.3256 62.5953 99.9188 61.7236 100.54 60.7956L96.5854 58.7991C95.9356 60.0364 94.9469 61.9204 92.0937 61.9204C89.2687 61.9204 88.0258 59.7271 88.0258 57.5056H100.738C100.682 55.5091 100.512 52.0503 98.2239 49.5757C95.9356 47.1293 92.8847 47.0449 91.8112 47.0449C84.7771 47.0449 82.6866 52.5565 82.6866 56.8307C82.6866 62.5953 86.3873 65.9416 91.67 65.9416ZM89.1275 51.8816C90.5117 50.4193 92.8847 50.335 94.3537 51.7129C94.9469 52.4159 95.2859 53.2876 95.3424 54.2155H88.0823C88.2235 53.4844 88.4212 52.6689 89.1275 51.8816Z" fill="white"/>
<path d="M116.869 65.0978C118.705 64.3666 119.891 62.5951 119.92 60.6548C119.92 59.6144 119.552 58.5739 118.903 57.8709C117.886 56.718 116.388 56.493 115.258 56.2962C116.247 56.0993 118.055 55.7057 118.874 53.8497C118.959 53.681 119.213 53.0624 119.213 52.0782C119.242 50.1098 117.942 48.3382 116.021 47.8039C114.891 47.4384 113.14 47.354 111.19 47.354H104.043V65.7726H111.868C113.987 65.7726 115.484 65.6883 116.869 65.0978ZM108.45 50.8128H112.236C113.14 50.8128 114.665 50.869 114.665 52.6687C114.665 54.5809 112.97 54.609 111.897 54.6371H108.422L108.45 50.8128ZM108.45 62.4264V57.9553H112.462C113.394 57.9834 115.258 58.0115 115.258 60.233C115.258 62.342 113.253 62.3982 111.699 62.4264H108.45Z" fill="white"/>
</g>
<defs>
<clipPath id="clip0_65_169">
<rect width="158" height="89" fill="white"/>
</clipPath>
</defs>
</svg>
