<svg width="145" height="107" viewBox="0 0 145 107" fill="none" xmlns="http://www.w3.org/2000/svg">
<g clip-path="url(#clip0_65_149)">
<path d="M36.6696 60.3149C36.6696 62.0674 38.0801 63.4694 39.8433 63.4694H42.0766C43.8397 63.4694 45.2502 62.0674 45.2502 60.3149V47.2297C45.2502 45.3604 43.8397 44.0752 42.0766 44.0752H39.8433C38.0801 44.0752 36.6696 45.4772 36.6696 47.2297V60.3149Z" fill="white"/>
<path d="M118.597 0.0292969H81.3357C80.6305 0.0292969 79.6901 0.379796 79.22 0.96396L40.431 39.4019H41.9591C46.8958 39.4019 50.187 42.5564 50.187 47.2297V60.315C50.187 64.9883 46.8958 68.1428 41.9591 68.1428H39.7258C34.6714 68.1428 31.4978 64.9883 31.4978 60.315V48.1644L13.0437 66.624C12.5735 67.0913 12.1033 68.0259 12.1033 68.7269V105.763C12.1033 106.347 12.456 106.814 13.0437 106.931H51.1274C51.7151 106.814 52.4203 106.464 52.773 106.113L91.4443 67.6755H80.1603C79.8077 67.6755 79.6901 67.5586 79.6901 67.2081V40.2198C79.6901 39.8693 79.8077 39.7524 80.1603 39.7524H95.911C96.146 39.7524 96.3811 39.8693 96.3811 40.2198V43.9584C96.3811 44.3089 96.2636 44.4257 95.911 44.4257H85.3321C84.9795 44.4257 84.862 44.5426 84.862 44.8931V50.7347C84.862 51.0852 84.9795 51.202 85.3321 51.202H94.0303C94.3829 51.202 94.5005 51.3189 94.5005 51.6694V55.408C94.5005 55.7585 94.3829 55.8753 94.0303 55.8753H85.3321C84.9795 55.8753 84.862 55.9922 84.862 56.3427V62.6516C84.862 63.0021 84.9795 63.119 85.3321 63.119H95.911C96.0285 63.119 96.0285 63.119 96.146 63.119L118.949 40.4534C119.419 39.9861 119.89 39.0514 119.89 38.3504V1.31446C119.89 0.613461 119.302 0.0292969 118.597 0.0292969ZM73.813 67.325C73.813 67.6754 73.6955 67.7923 73.3428 67.7923H69.699L69.3464 67.5586L60.1781 49.8L60.4132 67.325C60.4132 67.6754 60.2957 67.7923 59.943 67.7923H55.829C55.4764 67.7923 55.3589 67.6754 55.3589 67.325V40.2198C55.3589 39.8693 55.4764 39.7524 55.829 39.7524H59.5904L59.943 39.9861L68.9938 57.9783L68.7587 40.2198C68.7587 39.8693 68.8762 39.7524 69.2289 39.7524H73.3428C73.5779 39.7524 73.813 39.8693 73.813 40.2198V67.325Z" fill="white"/>
<path d="M6.81391 41.2713H4.81569C4.69815 41.2713 4.58061 41.2713 4.58061 41.505V50.8516C4.58061 50.9684 4.58061 51.0853 4.34552 51.0853H2.58239C2.46485 51.0853 2.3473 51.0853 2.3473 50.8516V41.505C2.3473 41.3881 2.34731 41.2713 2.11222 41.2713H0.231544C0.114002 41.2713 -0.00354004 41.2713 -0.00354004 41.0376V39.5188C-0.00354004 39.402 -0.00354027 39.2852 0.231544 39.2852H6.81391C6.93145 39.2852 7.04899 39.2852 7.04899 39.5188V41.0376C6.93145 41.2713 6.93145 41.2713 6.81391 41.2713Z" fill="white"/>
<path d="M16.4524 51.0853H14.6892C14.5717 51.0853 14.4542 51.0853 14.4542 50.8516V46.2951C14.4542 46.1783 14.4542 46.0615 14.2191 46.0615H10.6928C10.5753 46.0615 10.4577 46.0615 10.4577 46.2951V50.8516C10.4577 50.9684 10.4577 51.0853 10.2226 51.0853H8.45951C8.34197 51.0853 8.22443 51.0853 8.22443 50.8516V39.5188C8.22443 39.402 8.22443 39.2852 8.45951 39.2852H10.2226C10.3402 39.2852 10.4577 39.2852 10.4577 39.5188V43.9585C10.4577 44.0753 10.4577 44.1921 10.6928 44.1921H14.2191C14.3366 44.1921 14.4542 44.1921 14.4542 43.9585V39.5188C14.4542 39.402 14.4542 39.2852 14.6892 39.2852H16.4524C16.5699 39.2852 16.6875 39.2852 16.6875 39.5188V50.8516C16.5699 50.9684 16.5699 51.0853 16.4524 51.0853Z" fill="white"/>
<path d="M25.5031 51.0853H18.9208C18.8032 51.0853 18.6857 51.0853 18.6857 50.8516V39.5188C18.6857 39.402 18.6857 39.2852 18.9208 39.2852H25.5031C25.6207 39.2852 25.7382 39.2852 25.7382 39.5188V41.0376C25.7382 41.1545 25.7382 41.2713 25.5031 41.2713H21.0365C20.919 41.2713 20.8014 41.2713 20.8014 41.505V43.9585C20.8014 44.0753 20.8014 44.1921 21.0365 44.1921H24.6803C24.7979 44.1921 24.9154 44.1921 24.9154 44.4258V46.0615C24.9154 46.1783 24.9154 46.2951 24.6803 46.2951H21.0365C20.919 46.2951 20.8014 46.2951 20.8014 46.5288V49.2159C20.8014 49.3328 20.8014 49.4496 21.0365 49.4496H25.5031C25.6207 49.4496 25.7382 49.4496 25.7382 49.6833V51.3189C25.6207 50.9684 25.6207 51.0853 25.5031 51.0853Z" fill="white"/>
<path d="M107.43 59.03C107.43 59.8478 108.253 60.1983 109.546 60.7825C111.544 61.7171 112.484 62.7686 112.484 64.5211C112.484 66.5073 111.074 67.7924 108.958 67.7924H108.253C107.195 67.7924 106.372 67.4419 105.784 66.9746C105.197 66.3904 104.962 65.8063 104.962 65.5726C104.962 65.5726 104.962 65.4558 105.079 65.4558L106.725 64.6379C106.725 64.6379 106.725 64.6379 106.842 64.6379C106.96 64.6379 106.96 64.8716 107.195 65.2221C107.43 65.5726 107.9 65.9231 108.253 65.9231H108.958C109.663 65.9231 110.251 65.3389 110.251 64.6379C110.251 63.7033 109.428 63.3528 108.253 62.7686C106.255 61.834 105.197 60.8993 105.197 59.1468C105.197 57.1607 106.607 55.8755 108.723 55.8755H108.958C109.781 55.8755 110.486 56.1092 111.074 56.4597C111.779 56.927 112.249 57.8616 112.249 58.0953C112.249 58.2121 112.249 58.2121 112.132 58.2121L110.486 59.03H110.369C110.251 59.03 110.251 58.9131 110.134 58.7963C109.781 58.2121 109.428 57.8617 108.841 57.8617H108.605C108.135 57.7448 107.43 58.329 107.43 59.03Z" fill="white"/>
<path d="M121.888 67.6756H120.125C120.007 67.6756 119.89 67.6756 119.89 67.4419V62.8855C119.89 62.7686 119.89 62.6518 119.654 62.6518H116.128C116.011 62.6518 115.893 62.6518 115.893 62.8855V67.4419C115.893 67.5588 115.893 67.6756 115.658 67.6756H113.895C113.777 67.6756 113.66 67.6756 113.66 67.4419V56.1092C113.66 55.9923 113.66 55.8755 113.895 55.8755H115.658C115.776 55.8755 115.893 55.8755 115.893 56.1092V60.5488C115.893 60.6656 115.893 60.7825 116.128 60.7825H119.654C119.772 60.7825 119.89 60.7825 119.89 60.5488V56.1092C119.89 55.9923 119.89 55.8755 120.125 55.8755H121.888C122.005 55.8755 122.123 55.8755 122.123 56.1092V67.4419C122.123 67.5588 122.005 67.6756 121.888 67.6756Z" fill="white"/>
<path d="M128.353 67.7921H127.412C125.296 67.7921 123.886 66.5069 123.886 64.5208V59.0296C123.886 57.0435 125.296 55.7583 127.412 55.7583H128.353C130.468 55.7583 131.879 57.0435 131.879 59.0296V64.5208C131.761 66.5069 130.351 67.7921 128.353 67.7921ZM129.646 59.0296C129.646 58.2118 129.058 57.7445 128.353 57.7445H127.412C126.707 57.7445 126.119 58.3286 126.119 59.0296V64.5208C126.119 65.2218 126.707 65.8059 127.412 65.8059H128.353C129.058 65.8059 129.646 65.2218 129.646 64.5208V59.0296Z" fill="white"/>
<path d="M142.458 67.5586C142.458 67.6755 142.34 67.6755 142.223 67.6755H140.812C140.695 67.6755 140.695 67.6755 140.577 67.5586L138.696 60.1982L136.816 67.5586C136.816 67.6755 136.698 67.6755 136.581 67.6755H135.17C135.052 67.6755 135.052 67.6755 134.935 67.5586L132.467 56.2258C132.467 56.2258 132.467 56.2259 132.467 56.109C132.467 55.9922 132.584 55.9922 132.702 55.9922H134.582C134.7 55.9922 134.7 55.9922 134.817 56.109L136.228 63.7031L137.991 56.109C137.991 55.9922 138.109 55.9922 138.226 55.9922H139.166C139.284 55.9922 139.284 55.9922 139.402 56.109L141.165 63.7031L142.575 56.109C142.575 55.9922 142.693 55.9922 142.81 55.9922H144.691C144.809 55.9922 144.926 55.9922 144.926 56.109C144.926 56.109 144.926 56.109 144.926 56.2258L142.458 67.5586Z" fill="white"/>
</g>
<defs>
<clipPath id="clip0_65_149">
<rect width="145" height="107" fill="white"/>
</clipPath>
</defs>
</svg>
