<svg width="108" height="116" viewBox="0 0 108 116" fill="none" xmlns="http://www.w3.org/2000/svg">
<g clip-path="url(#clip0_65_190)">
<path d="M56.8965 18.518C57.8076 19.8309 56.9631 23.8808 58.0076 23.7473C58.9853 23.6138 62.452 16.9381 61.2742 14.6462C60.0965 12.3542 52.0076 9.68397 50.6298 9.61722C45.1409 9.28344 43.5187 13.6671 42.852 17.2052C42.5853 18.7851 37.3631 30.2226 37.6298 29.8221L48.3853 17.6057C50.3631 15.7588 55.5187 16.6711 56.8965 18.518ZM26.7409 50.6278C27.5853 51.2953 29.1631 54.2326 28.9631 53.7653C28.7631 53.298 29.6076 50.561 27.7853 47.2232C25.9631 43.8854 25.3631 42.6393 24.5853 39.3015C23.8076 35.9637 22.3631 33.1599 24.7187 31.0682C27.2076 28.9098 28.9631 26.017 29.7409 22.8127C30.5187 19.6084 33.0742 17.1162 35.9409 13.6671C36.9853 12.3097 38.1631 10.9301 39.4076 9.68397C38.7409 10.5963 37.3853 14.3347 36.7409 16.2261C36.0742 18.1843 33.0076 22.4344 31.5853 24.7264C30.1631 27.0183 26.9631 31.3797 26.6965 35.5186C26.4298 39.6352 29.8298 44.4862 30.2965 46.2441C30.7409 48.002 29.6298 53.12 30.8076 56.7026C32.052 60.3074 35.452 63.712 36.0298 64.157C36.6298 64.6021 36.4965 64.157 36.2965 63.89C36.0965 63.623 35.7187 63.2892 34.8742 61.5313C34.0298 59.7734 34.4076 57.8819 35.0076 55.2562C35.652 52.8307 35.852 50.3385 35.652 47.8685C35.3853 45.265 33.2965 40.8146 32.652 38.0554C32.0076 35.3183 33.6298 32.6926 36.3631 28.0419C39.0965 23.4135 39.4965 19.4749 39.8298 16.6044C40.2298 13.7338 41.7853 9.59496 46.0965 7.83705C48.5853 6.79121 55.5631 8.23759 59.1409 10.5296C61.6965 12.2207 62.9853 13.8674 63.3187 15.6253C63.7631 17.7837 62.4742 19.2301 61.6076 21.3218C60.7631 23.4135 60.252 25.839 61.1631 25.7722C61.9409 25.7055 71.3409 17.806 73.4298 15.5808C74.4742 14.4682 75.852 11.5309 73.8742 8.90515C72.1853 6.61319 60.052 5.6341 57.6298 2.36304C55.5409 -0.529723 50.1409 -0.329455 48.5631 0.649636C47.052 1.65098 43.8742 4.32123 40.7187 5.43383C37.5853 6.47968 34.3187 6.99147 30.0742 9.14992C25.8298 11.3084 26.0298 13.8451 25.5631 15.692C25.1187 17.5167 24.7853 22.5012 21.3187 27.7304C17.852 32.9596 19.8965 36.6757 21.5853 42.0385C23.2742 47.4235 25.8965 49.9825 26.7409 50.6278ZM49.7853 47.8685C49.7187 48.4693 50.3187 47.9353 50.8298 47.2232C51.3409 46.5111 53.252 43.3736 56.3187 37.9886C59.3853 32.6259 61.2742 28.0419 61.0742 27.9307C60.8742 27.7972 60.4076 28.2644 59.9631 28.6427C59.1187 29.3548 58.2742 30.1559 57.6076 31.0682C56.7631 32.1808 56.052 32.0473 55.0076 32.2476C53.9631 32.4478 52.0076 34.6063 50.8298 35.5186C49.652 36.4977 48.2742 37.1653 46.7853 37.5436C45.2965 37.8106 45.0298 37.1653 44.3631 37.2098C43.6965 37.3433 43.7631 38.3891 43.9631 39.1012C44.1631 39.8133 44.0298 40.147 43.9187 41.4599C43.7853 42.7505 44.6965 43.9967 45.4742 44.731C46.252 45.443 46.0076 46.6224 46.5187 47.0229C46.9853 47.4012 47.1631 44.7977 47.1631 43.1733C47.1631 41.5267 46.7853 39.969 46.852 39.702C46.9187 39.4572 48.2076 39.1235 48.8076 38.7229C49.4076 38.3446 50.8965 37.2988 51.6076 36.8982C52.3187 36.5645 52.3187 36.8315 52.1409 37.2098C51.8076 37.9218 51.3631 38.5226 50.6965 38.9677C49.7187 39.6352 48.6076 40.0803 47.4965 40.2806C47.052 40.2806 47.1187 40.6811 47.4965 40.9926C47.8965 41.3264 49.0076 41.3264 49.9853 41.0594C50.9631 40.7924 50.8298 42.0385 50.6965 43.4181C50.6298 44.8645 49.852 47.29 49.7853 47.8685ZM70.7409 3.94294C77.9853 6.27941 79.6076 12.5767 77.0742 15.4473C75.7187 17.0939 74.0742 18.0062 70.4076 20.2982C68.252 21.6111 66.1631 23.0352 64.1409 24.6151C62.9631 25.5274 62.3187 26.7736 64.852 26.0392C65.1187 25.9725 80.5187 22.6347 82.4742 21.5888C85.8076 19.8309 86.7853 18.6516 87.3187 16.3596C87.852 14.0676 84.3853 10.3293 82.7409 8.43786C79.4742 4.65501 71.652 0.716392 71.3187 0.716392C67.4076 -0.596479 62.5853 0.449367 58.652 0.649636C58.2076 0.649636 58.3853 1.3172 58.6076 1.49521C62.1853 4.0542 66.4965 2.87484 70.7409 3.94294ZM74.6298 85.7415C67.452 94.9761 55.3187 94.6423 47.0298 97.9134C37.3631 101.763 30.7853 108.639 29.0298 110.33C26.0298 113.267 22.3187 112.489 20.2742 112.422C18.252 112.288 16.2965 111.242 15.4298 111.109C14.5187 111.042 13.6076 111.042 12.6965 111.176C12.7631 110.642 13.0298 110.13 13.4742 109.796C14.1853 109.351 15.6298 109.195 18.1631 108.683C20.1187 108.238 22.0076 107.393 23.652 106.124C24.6965 105.479 24.0298 105.279 23.3187 105.412C21.2965 106.08 19.2076 106.592 17.0742 106.925C13.4742 107.46 12.3631 107.193 11.0076 108.105C9.65201 109.017 9.89646 111.376 9.65201 112.021C9.38535 112.689 9.11868 112.867 8.60757 112.422C8.07423 111.954 7.9409 110.441 8.27423 109.084C8.60757 107.704 10.6965 106.725 12.652 106.213C14.6298 105.679 18.7187 105.501 23.2298 103.076C36.5409 95.9997 42.3631 90.7037 54.0965 81.6249C66.6298 71.9452 77.7187 66.6493 86.5187 62.3991C91.9409 59.7734 107.985 57.8152 107.985 57.8152C106.541 56.9029 104.985 56.2353 103.296 55.9905C101.919 55.857 100.496 55.7902 99.1187 55.7902C101.274 54.6109 106.896 50.294 107.741 44.731C108.852 37.2765 98.9853 31.1795 98.852 24.4593C98.5409 8.68263 82.8076 6.52418 83.5187 6.99147C86.452 8.81614 89.5187 12.3542 90.052 14.3792C91.0965 18.1175 87.9631 22.1674 83.3853 23.6805C81.2298 24.3926 69.0965 27.0851 67.5187 28.7095C65.8742 30.3339 69.2076 38.9232 67.052 42.3723C64.8965 45.8436 52.8965 51.7849 51.452 53.4983C50.6076 54.5441 49.2298 54.9892 47.9853 54.6109C47.452 54.5441 47.9187 55.1894 49.3631 55.5232C50.852 55.857 53.4076 54.9892 54.8298 54.1436C56.3409 53.298 58.3631 55.0782 58.2965 56.1685C58.2298 57.2811 56.7853 57.6149 54.1187 59.3061C51.9631 60.6857 45.8298 56.8138 45.3187 55.59C44.7853 54.3439 46.6298 54.7444 47.7409 53.3648C48.852 51.9851 46.9631 51.7849 46.2298 51.9851C45.5187 52.1854 45.1187 51.8516 44.4076 51.6514C43.6742 51.4511 42.9187 51.6514 42.3187 52.1632C41.852 52.6972 42.3187 53.0977 40.6298 53.2758C38.9409 53.476 39.6965 51.4511 40.0965 49.2259C40.4742 47.0007 41.852 41.2374 41.6076 40.4586C41.3409 39.6798 41.2742 40.0135 40.6742 39.2792C40.0965 38.5672 40.0298 37.321 39.9631 35.2293C39.9187 33.1376 40.0965 29.2658 40.0965 29.2658C39.1853 30.8457 38.5187 32.6036 38.2742 34.4283C37.7409 37.7661 39.9631 39.5907 40.0298 40.1248C40.0965 40.6588 39.9631 41.8159 38.9187 47.7127C37.8742 53.6095 39.1853 54.6999 40.4076 55.679C41.6965 56.7248 47.3853 59.6844 47.3853 59.6844L47.252 62.2878C45.3631 62.9554 43.4742 63.801 41.7631 64.9136C39.0965 66.6047 38.1187 69.7645 37.9187 70.7436C37.7187 71.7227 38.2298 71.5892 38.2298 71.5892C39.0742 70.7436 39.9853 70.0093 40.8965 69.2972C42.9853 67.6506 47.5631 66.805 48.0965 66.7383C48.6742 66.6715 48.6742 66.8718 47.9631 67.3836C47.252 67.9176 45.3631 69.275 41.3853 72.3013C37.4076 75.3053 36.8076 79.1104 36.8076 79.956C36.8076 80.8016 37.3409 80.0895 37.3409 80.0895C37.7853 79.1104 38.452 78.2648 39.2965 77.5305C40.652 76.2844 43.7409 75.5056 47.1853 74.9048C50.652 74.393 51.2298 73.4806 52.2742 71.9007C53.6298 70.1428 55.1409 68.4962 56.8298 67.0053C57.4298 66.6715 57.6076 66.8718 57.2298 67.072C56.8965 67.3391 56.6965 67.5393 54.8076 69.4975C53.6965 70.7436 52.9853 72.2345 52.652 73.8144C53.5631 72.7018 54.6742 71.656 55.9187 70.8772C58.1409 69.3195 63.6298 67.5393 65.052 67.161C66.4742 66.8273 66.3631 67.0275 66.1631 67.2278C65.4965 67.6061 64.852 68.0066 64.1409 68.3404C62.5631 69.186 57.0298 72.457 49.7187 77.8866C42.2742 83.4496 36.2076 89.8582 30.2076 94.3086C24.2076 98.759 19.7631 100.717 17.4076 101.118C15.052 101.518 12.3187 100.139 8.85201 100.005C6.51868 99.9383 4.29646 100.917 2.71868 102.675C2.3409 103.209 2.3409 103.654 2.65201 103.588C2.98535 103.543 3.49646 102.942 4.02979 102.942C4.56312 102.942 4.47423 103.276 4.47423 103.276C4.47423 103.276 4.20757 103.41 3.22979 103.855C1.7409 104.856 0.607567 106.28 0.0964563 108.038C-0.636877 110.197 1.07423 113.468 1.07423 113.468C1.98535 113.534 2.82979 113.712 3.60757 114.046C4.65201 114.447 5.76312 114.981 6.7409 115.493C7.45201 115.871 8.16312 116.004 9.60757 115.626C11.0298 115.248 14.1187 115.248 16.1409 115.292C18.2298 115.426 26.3187 117.384 31.5409 113.979C47.7853 99.6713 64.8298 100.895 70.9631 98.759C83.4965 94.1751 81.4742 77.2412 103.541 79.778C102.763 77.4415 85.5409 71.8117 74.6298 85.7415ZM96.3631 53.6986C99.6964 50.4275 101.785 46.1106 102.252 41.4822C103.163 46.1106 100.563 52.7862 98.4076 55.857C96.652 55.9238 94.9409 56.124 93.1853 56.4356C94.4742 55.7902 95.2742 54.8779 96.3631 53.6986ZM93.9631 37.9218C97.8076 44.6642 92.5409 52.2522 91.3631 53.298C90.052 54.3439 88.6298 55.1894 87.1187 55.9238C89.452 53.7653 91.6298 51.0061 92.2076 47.8685C92.8076 44.731 91.8298 41.3932 90.1187 37.8106C89.7853 37.0985 83.852 28.398 83.3187 27.8639C84.3631 28.0642 91.9409 33.4937 93.9631 37.9218ZM75.4965 30.7344C75.2965 30.2004 81.8298 42.5725 80.5187 48.0688C78.4298 56.7693 70.7409 62.7329 70.7409 62.7329C70.7409 62.7329 74.452 55.59 74.9853 54.3661C75.5631 53.12 79.2076 40.1693 75.4965 30.7344ZM61.3187 55.412C63.8076 53.9656 70.9853 42.7283 71.252 43.3068C71.7187 45.265 71.7187 47.3122 71.1187 49.2036C70.0742 52.0742 61.3187 55.412 61.3187 55.412ZM4.29646 109.484C3.91868 110.464 2.5409 108.906 2.98535 107.793C3.11868 107.46 4.7409 103.855 8.40757 104.656C9.38535 104.856 5.67423 106.28 4.29646 109.484Z" fill="white"/>
</g>
<defs>
<clipPath id="clip0_65_190">
<rect width="108" height="116" fill="white"/>
</clipPath>
</defs>
</svg>
