<svg width="117" height="136" viewBox="0 0 117 136" fill="none" xmlns="http://www.w3.org/2000/svg">
<g clip-path="url(#clip0_65_123)">
<path d="M36.7596 72.7981C36.7596 72.7981 48.6135 57.8683 44.4096 43.3525L29.305 68.2193C29.305 68.2193 30.0138 72.8468 30.136 73.4557C30.136 73.4557 31.2603 80.2508 36.7596 72.7981Z" fill="white"/>
<path d="M52.1331 72.6029C52.1331 72.6029 55.0416 75.8422 59.0744 67.9024L55.5059 61.0342C55.4815 61.0342 49.9578 69.0227 52.1331 72.6029Z" fill="white"/>
<path d="M58.5855 92.0144L68.4353 84.8296L53.6729 88.0688L58.5855 92.0144Z" fill="white"/>
<path d="M62.2273 43.1331C62.2273 43.1331 63.156 40.7706 61.9584 40.3079C61.9584 40.3079 60.2231 39.7964 58.2678 43.2549C58.2678 43.2549 56.3614 46.8351 58.2922 50.1474C58.2922 50.1474 61.7629 45.3251 62.2273 43.1331Z" fill="white"/>
<path d="M58.4878 0L0 34V102L58.4878 136L116.976 102V34L58.4878 0ZM54.5772 41.9885C59.1232 34.8281 63.4249 34.2192 63.4249 34.2192C67.8243 33.2206 67.6288 37.7751 67.6288 37.7751C68.362 44.4484 60.6386 54.2636 60.6386 54.2636C61.0052 55.9441 63.5227 59.8166 63.5227 59.8166C64.8669 57.7708 66.7733 50.586 66.7733 50.586L73.5191 47.0788C72.6637 53.1433 66.48 65.2235 66.48 65.2235C66.92 65.7106 70.6106 72.7006 70.6106 72.7006L63.6204 76.0129L61.8851 72.9685C53.8195 84.6834 49.1757 81.8582 49.1757 81.8582C45.7784 80.7135 46.4383 72.5788 46.4383 72.5788C47.1715 65.1504 53.2085 56.1877 53.2085 56.1877C49.469 49.2708 54.5772 41.9885 54.5772 41.9885ZM46.9515 29.0802C53.4284 47.0544 49.4934 58.9155 49.4934 58.9155C44.4585 75.5745 34.7554 83.3925 34.7554 83.3925C31.9202 85.7794 29.0117 84.7808 27.9852 83.1003C26.812 81.1519 26.3232 78.2292 26.3232 78.2292C26.0299 77.0845 24.319 67.4398 24.319 67.4398L46.9515 29.0802ZM51.1554 105.678L45.2407 101.781L53.5262 95.7163L46.0472 89.7493L32.0668 92.7937L25.9077 88.5072L76.892 77.8395L81.3403 82.4183L51.1554 105.678ZM91.9967 75.4284L90.8968 74.2106C90.9212 76.2321 90.5546 77.1576 90.5546 77.1576C89.1126 82.2478 85.5197 82.0286 85.5197 82.0286C78.7984 81.9312 74.0324 70.7521 74.0324 70.7521C68.2643 58.7206 73.1281 52.4613 73.1281 52.4613C75.3278 49.7822 77.943 50.1232 77.943 50.1232L72.9081 40.6977L76.0854 36.3138L94.5141 70.5086L91.9967 75.4284Z" fill="white"/>
<path d="M78.0163 67.1234C80.9737 73.3583 83.54 75.9887 85.4953 74.9658C87.475 73.9185 87.6461 68.8769 85.6175 63.7623C83.4422 58.3067 80.7292 55.0188 78.114 56.2609C75.8899 57.3082 75.6455 62.1305 78.0163 67.1234Z" fill="white"/>
</g>
<defs>
<clipPath id="clip0_65_123">
<rect width="117" height="136" fill="white"/>
</clipPath>
</defs>
</svg>
